<svg width="564" height="639" viewBox="0 0 564 639" fill="none" xmlns="http://www.w3.org/2000/svg">
<path fill-rule="evenodd" clip-rule="evenodd" d="M293.699 483.246L81.1508 270.698C70.0531 284.903 59.6407 299.292 49.9296 313.796L250.601 514.467C265.105 504.756 279.494 494.344 293.699 483.246ZM250.139 538.807C312.044 497.362 363.424 454.224 412.873 398.144L435.937 494.658L248.425 629.229L250.139 538.807ZM59.2713 351.376L213.022 505.128C145.738 534.084 79.3711 547.529 20.4607 543.937C16.8701 485.028 30.3153 418.661 59.2713 351.376ZM166.251 151.523C110.223 200.928 66.9992 252.406 25.5902 314.257L-64.832 315.972L69.7386 128.458L166.251 151.523ZM553.624 10.7705C562.728 160.112 467.137 317.867 364.254 420.749C346.433 438.57 328.082 455.223 309.36 470.67L93.7273 255.036C109.174 236.314 125.828 217.963 143.648 200.142C246.531 97.2602 404.283 1.66479 553.624 10.7705ZM409.467 240.969C433.225 217.211 433.225 178.69 409.467 154.932C385.709 131.175 347.188 131.175 323.43 154.932C299.673 178.69 299.673 217.211 323.43 240.969C347.188 264.727 385.709 264.727 409.467 240.969Z" fill="url(#paint0_linear_116_2465)" fill-opacity="0.06"/>
<defs>
<linearGradient id="paint0_linear_116_2465" x1="554" y1="-11.5" x2="40.5" y2="595.5" gradientUnits="userSpaceOnUse">
<stop stop-color="#F8F8FA" stop-opacity="0.91"/>
<stop offset="1" stop-color="#F8F8FA" stop-opacity="0"/>
</linearGradient>
</defs>
</svg>
