<svg width="785" height="1062" viewBox="0 0 785 1062" fill="none" xmlns="http://www.w3.org/2000/svg">
<g opacity="0.06" clip-path="url(#clip0_116_2118)">
<path fill-rule="evenodd" clip-rule="evenodd" d="M303.032 606.496C323.398 593.23 350.66 598.985 363.926 619.351C377.191 639.717 371.436 666.978 351.071 680.244C334.803 690.839 314.142 689.298 299.722 677.872C279.92 690.771 260.125 703.662 240.323 716.559C237.308 718.554 233.527 719.388 229.71 718.582L169.065 705.779L9.90369 809.455C3.42879 813.672 -5.2392 811.842 -9.45514 805.368C-13.6728 798.893 -11.8429 790.225 -5.36841 786.009L158.649 679.171C161.887 677.062 165.672 676.465 169.175 677.204L229.821 690.005C248.029 678.145 266.237 666.284 284.445 654.424C279.824 636.616 286.764 617.091 303.032 606.496ZM161.338 465.422C175.758 476.849 196.421 478.39 212.689 467.793C233.055 454.527 238.81 427.265 225.544 406.9C212.277 386.532 185.017 380.777 164.651 394.045C148.382 404.641 141.44 424.164 146.065 441.973C126.265 454.87 106.467 467.766 86.669 480.664C83.6257 482.615 81.3366 485.736 80.531 489.552L67.7285 550.197L-91.4328 653.873C-97.9077 658.09 -99.7375 666.758 -95.5195 673.231C-91.3019 679.706 -82.6339 681.536 -76.1607 677.318L87.8568 570.48C91.0942 568.371 93.1703 565.15 93.9115 561.647L106.714 501.002C124.922 489.141 143.128 477.284 161.338 465.422ZM332.947 504.935C347.368 516.36 368.03 517.903 384.297 507.306C404.662 494.04 410.417 466.778 397.152 446.411C383.884 426.045 356.624 420.29 336.257 433.555C319.989 444.152 313.048 463.677 317.671 481.485C177.209 572.98 36.7487 664.474 -103.713 755.969C-110.188 760.186 -112.018 768.854 -107.8 775.327C-103.582 781.802 -94.9144 783.632 -88.4412 779.414C52.0218 687.923 192.489 596.428 332.947 504.935ZM-110.622 583.891L-2.1015 513.202C3.22887 435.688 43.5974 361.523 113.711 315.851C232.311 238.597 391.08 272.114 468.336 390.714C545.586 509.308 512.072 668.08 393.47 745.335C323.357 791.006 239.199 797.952 166.148 771.497L57.619 842.191C74.1531 852.571 91.4126 861.572 109.219 869.144L112.006 886.475L121.581 946.054L163.997 955.009L206.411 963.962L239.25 913.339L248.815 898.592C296.651 899.255 344.962 890.632 390.92 872.088L405.121 882.358L454.021 917.713L490.342 894.054L526.667 870.393L514.094 811.375L510.446 794.257C545.987 759.701 573.417 718.992 592.144 674.967L609.477 672.18L669.055 662.605L678.009 620.189L686.963 577.775L636.339 544.936L621.592 535.369C622.258 487.534 613.632 439.224 595.09 393.263L605.36 379.062L640.713 330.163L617.055 293.842L593.393 257.518L534.377 270.089L517.256 273.738C482.699 238.197 441.993 210.764 397.966 192.04L395.177 174.706L385.605 115.131L343.189 106.177L300.773 97.223L267.936 147.845L258.37 162.593C210.534 161.928 162.226 170.554 116.265 189.094L102.062 178.826L53.1637 143.471L16.837 167.132L-19.4841 190.792L-6.91231 249.808L-3.25871 266.949C-38.7981 301.496 -66.2119 342.196 -84.9382 386.218L-102.293 389.007L-161.869 398.581L-170.823 440.997L-179.777 483.413L-129.155 516.25L-114.409 525.814C-114.681 545.156 -113.433 564.577 -110.622 583.891Z" fill="url(#paint0_linear_116_2118)"/>
</g>
<defs>
<linearGradient id="paint0_linear_116_2118" x1="42.2491" y1="832.385" x2="822.53" y2="360.712" gradientUnits="userSpaceOnUse">
<stop stop-color="#3766D0" stop-opacity="0"/>
<stop offset="1" stop-color="#69248F"/>
</linearGradient>
<clipPath id="clip0_116_2118">
<rect width="895.525" height="895.525" fill="white" transform="translate(-92.0273) rotate(11.9204)"/>
</clipPath>
</defs>
</svg>
