<svg width="838" height="791" viewBox="0 0 838 791" fill="none" xmlns="http://www.w3.org/2000/svg">
<path fill-rule="evenodd" clip-rule="evenodd" d="M-9.49354 626.705C-13.7248 622.35 -13.6955 615.223 -9.22978 610.891L115.968 489.566C118.096 487.753 120.783 486.87 123.461 486.911C126.297 486.954 129.138 488.089 131.284 490.295L189.334 550.085C191.151 552.209 192.034 554.886 191.991 557.561C191.949 560.396 190.817 563.24 188.603 565.384L63.917 686.24C61.7213 688.366 58.8088 689.409 55.912 689.366C53.0739 689.325 50.229 688.19 48.0852 685.979L-9.49354 626.705ZM427.874 315.567C427.874 307.156 421.048 300.34 412.631 300.34C404.213 300.34 397.383 307.159 397.383 315.567V413.797C388.159 409.967 379.139 405.414 370.411 400.115V286.989C370.411 279.385 373.576 273.242 378.648 268.401C385.992 261.386 397.164 256.52 409.335 253.505C430.83 248.182 452.39 245.336 473.99 245.245C495.631 245.155 517.443 247.806 539.42 253.444C551.639 256.581 562.89 261.485 570.295 268.561C575.32 273.352 578.462 279.43 578.462 286.989V400.147C569.776 405.403 560.75 409.949 551.485 413.786V315.567C551.485 307.156 544.657 300.34 536.24 300.34C527.824 300.34 520.996 307.159 520.996 315.567V423.64C512.457 425.667 503.803 427.137 495.088 428.033C472.73 430.337 449.991 428.92 427.879 423.671V315.567H427.874ZM704.415 204.803C717.556 331.868 625.466 445.122 498.176 458.25C371.346 471.333 257.654 379.939 244.451 252.242C231.331 125.384 323.7 11.8937 450.685 -1.20502C577.608 -14.3037 691.307 78.0358 704.415 204.803ZM608.951 377.482V286.989C608.951 270.261 602.155 256.948 591.255 246.552C579.81 235.624 563.798 228.393 546.92 224.063C537.36 221.613 527.833 219.665 518.336 218.208C520.5 215.99 522.545 213.608 524.472 211.079C536.134 195.769 543.352 174.874 543.352 152.032C543.352 129.453 536.388 112.488 524.98 100.628C512.081 87.2209 494.103 81.0127 474.436 81.0127C454.761 81.0127 436.788 87.2209 423.887 100.628C412.478 112.488 405.512 129.453 405.512 152.032C405.512 174.87 412.73 195.771 424.391 211.079C426.346 213.644 428.422 216.053 430.611 218.298C421.051 219.751 411.54 221.66 402.07 224.002C385.176 228.193 369.162 235.434 357.685 246.392C346.743 256.833 339.917 270.227 339.917 286.989V377.451C301.732 343.084 279.649 297.001 274.701 249.148C263.312 139.035 343.533 40.3835 453.785 29.0119C564.019 17.6403 662.779 97.7662 674.165 207.895C680.764 271.704 656.442 334.586 608.951 377.482ZM445.798 121.691C452.518 114.709 462.757 111.471 474.436 111.471C486.111 111.471 496.348 114.709 503.066 121.691C509.145 128.012 512.861 137.938 512.861 152.032C512.861 168.11 508.057 182.45 500.297 192.641C493.415 201.678 484.245 207.271 474.436 207.271C464.621 207.271 455.453 201.678 448.571 192.641C440.807 182.452 436.003 168.108 436.003 152.032C436.003 137.938 439.718 128.01 445.798 121.691ZM166.962 483.405L234.638 417.812C243.416 428.887 253.057 439.461 263.551 449.434L196.804 514.131L166.962 483.405ZM200.72 256.784C185.111 105.884 295.064 -29.3052 446.141 -44.8922C597.265 -60.4814 732.542 49.2871 748.148 200.261C763.748 351.159 653.809 486.348 502.728 501.935C349.863 517.709 216.157 406.047 200.72 256.784Z" fill="url(#paint0_linear_116_2535)" fill-opacity="0.06"/>
<defs>
<linearGradient id="paint0_linear_116_2535" x1="588.5" y1="-25.5" x2="78" y2="659" gradientUnits="userSpaceOnUse">
<stop stop-color="#F8F8FA"/>
<stop offset="1" stop-color="#F8F8FA" stop-opacity="0.37"/>
</linearGradient>
</defs>
</svg>
