<svg width="50" height="50" viewBox="0 0 50 50" fill="none" xmlns="http://www.w3.org/2000/svg">
<path fill-rule="evenodd" clip-rule="evenodd" d="M25.0002 8.73125C17.7423 8.73125 11.8585 14.6149 11.8585 21.8729C11.8585 28.2622 15.4313 29.9069 16.7458 37.1397H20.4176V32.2902L18.2393 30.1119C18.0867 29.9594 18.0104 29.7595 18.0104 29.5596C18.0104 28.3617 18.0104 27.1639 18.0104 25.966C17.175 25.6504 16.5811 24.8435 16.5811 23.8977C16.5811 22.6768 17.5707 21.6872 18.7915 21.6872C20.0124 21.6872 21.002 22.6769 21.002 23.8977C21.002 24.8435 20.408 25.6504 19.5727 25.966V29.236L21.747 31.4104C21.8907 31.5521 21.9799 31.749 21.9799 31.9668V37.1397L24.4211 37.1396C24.4211 31.3686 24.4211 25.5976 24.4211 19.8266C23.5858 19.5109 22.9919 18.704 22.9919 17.7582C22.9919 16.5373 23.9814 15.5478 25.2023 15.5478C26.4232 15.5478 27.4128 16.5373 27.4128 17.7582C27.4128 18.704 26.8188 19.5109 25.9836 19.8266V37.1398H28.0202V31.9668C28.0202 31.7489 28.1094 31.5521 28.2532 31.4104L30.4274 29.2361C30.4274 28.1461 30.4274 27.0562 30.4274 25.9661C29.5922 25.6505 28.9982 24.8436 28.9982 23.8978C28.9982 22.6769 29.9879 21.6873 31.2087 21.6873C32.4296 21.6873 33.4191 22.677 33.4191 23.8978C33.4191 24.8436 32.8252 25.6505 31.9898 25.9661V29.5597C31.9897 29.7596 31.9135 29.9595 31.7609 30.112L29.5826 32.2903V37.1398H33.2542C34.5687 29.907 38.1416 28.2623 38.1416 21.873C38.1418 14.6149 32.2581 8.73125 25.0002 8.73125ZM10.296 21.8729C10.296 24.9927 11.0514 27.1695 12.4118 29.8891C12.9593 30.9834 13.5175 32.0585 13.9813 33.1929C14.4159 34.2556 14.7541 35.3312 15.0078 36.4398L14.3658 36.7227L11.7113 37.9017L10.2356 36.4263L8.76025 34.9508L9.93926 32.2962L10.2822 31.5239C8.99834 29.6119 8.07715 27.4359 7.61719 25.0945L6.83086 24.7919L4.12012 23.7484V21.6618V19.5752L6.83086 18.5317L7.61787 18.2288C8.07764 15.8877 8.99893 13.7121 10.2827 11.8005L9.93936 11.0273L8.76016 8.37256L10.2355 6.89688L11.7111 5.42148L14.3657 6.60049L15.139 6.94395C17.0508 5.66045 19.226 4.73906 21.5671 4.27939L21.8701 3.49209L22.9136 0.78125H25.0003H27.0869L28.1304 3.49199L28.4334 4.2793C30.7743 4.73896 32.9494 5.66035 34.8613 6.94385L35.6347 6.60039L38.2892 5.42139L39.7648 6.89678L41.2402 8.37236L40.0612 11.0271L39.7183 11.7993C41.0021 13.7113 41.9233 15.8874 42.3833 18.2288L43.1696 18.5314L45.8804 19.5749V21.6615V23.7481L43.1696 24.7916L42.3822 25.0946C41.9226 27.4355 41.0012 29.6106 39.7177 31.5226L40.0612 32.2959L41.2402 34.9504L39.7648 36.4261L38.2894 37.9015L35.6348 36.7225L34.986 36.467C35.2403 35.3485 35.5806 34.264 36.0187 33.1926C36.4826 32.0582 37.0409 30.983 37.5883 29.8888C38.9487 27.1692 39.7041 24.9924 39.7041 21.8727C39.7041 13.7523 33.1204 7.16846 25.0001 7.16846C16.8799 7.16875 10.296 13.7525 10.296 21.8729ZM28.4227 47.2448H21.5772C22.2655 48.4229 23.5442 49.2188 24.9999 49.2188C26.4557 49.2188 27.7344 48.4229 28.4227 47.2448ZM30.7114 42.9735H19.2885V43.5469C19.2885 44.5971 20.0567 45.4764 21.0589 45.6509C21.1776 45.6716 21.2997 45.6823 21.4241 45.6823H28.5761C28.7004 45.6823 28.8224 45.6716 28.941 45.6509C29.9431 45.4765 30.7114 44.597 30.7114 43.5468V42.9735ZM24.4212 38.702L20.4175 38.7021H16.7456V39.2755C16.7456 40.4501 17.7067 41.4109 18.8813 41.4109H19.2885H30.7114H31.1189C32.2933 41.4109 33.2543 40.4499 33.2543 39.2755V38.7021H29.5829L24.4212 38.702Z" fill="url(#paint0_linear_116_2560)"/>
<defs>
<linearGradient id="paint0_linear_116_2560" x1="10.1299" y1="55.5279" x2="55.9939" y2="15.9862" gradientUnits="userSpaceOnUse">
<stop stop-color="#3766D0"/>
<stop offset="1" stop-color="#69248F"/>
</linearGradient>
</defs>
</svg>
