<svg width="50" height="50" viewBox="0 0 50 50" fill="none" xmlns="http://www.w3.org/2000/svg">
<g clip-path="url(#clip0_116_2787)">
<path fill-rule="evenodd" clip-rule="evenodd" d="M16.6909 36.6316C16.2009 36.513 15.7578 36.3268 15.373 36.0642C15.3674 36.145 15.3649 36.2218 15.3656 36.2943C15.3733 37.0869 15.6865 37.8337 16.2258 38.4108C16.7727 38.9964 17.5556 39.4068 18.4943 39.5163C18.6855 39.5386 18.8727 39.5493 19.0541 39.5476L23.0254 39.5757L20.0205 36.5854C18.7978 36.8238 17.655 36.8649 16.6909 36.6316ZM37.49 34.657C37.28 34.8394 37.052 35.0042 36.8074 35.1486C36.6351 35.2504 36.4582 35.3407 36.2773 35.4188C34.7171 36.0924 32.6366 36.0162 30.1925 35.9269C29.8643 35.9148 29.5299 35.9026 29.2215 35.8929C28.7785 35.879 28.4486 35.5088 28.4686 35.0689L28.4897 34.7072L25.2667 37.2156L28.2991 40.2106L28.3496 39.6899C28.3881 39.283 28.7332 38.9789 29.135 38.9847C29.9514 38.9722 30.8493 39.0054 31.6539 39.0352L31.7948 39.0403C32.8438 39.079 33.7834 38.8282 34.5904 38.3737C35.5752 37.819 36.3688 36.9574 36.9294 35.9429C37.1551 35.5343 37.3428 35.1025 37.49 34.657ZM35.6512 32.5062C35.7916 32.9834 35.8508 33.4537 35.8162 33.9126C35.885 33.8786 35.951 33.843 36.014 33.8058C36.6996 33.4009 37.1906 32.7575 37.4198 32.0059C37.6535 31.2392 37.6168 30.3542 37.2406 29.4829C37.1619 29.3007 37.0761 29.1444 36.9798 28.9724L35.0354 25.5082L33.95 29.6625C34.7685 30.6016 35.3734 31.5624 35.6512 32.5062ZM22.58 18.1903C22.9255 17.8338 23.3056 17.5513 23.7221 17.3548C23.6599 17.3134 23.5987 17.2757 23.5386 17.2418C22.8475 16.8518 22.0432 16.7495 21.2726 16.9281C20.491 17.1093 19.7438 17.5818 19.1801 18.3395C19.0568 18.505 18.9703 18.6503 18.8659 18.8249L16.8655 22.178L20.9654 21.0521C21.3691 19.88 21.901 18.891 22.58 18.1903ZM25.9296 17.3207C25.5778 16.8865 25.206 16.5116 24.7991 16.2089C24.6449 16.0941 24.4786 15.9867 24.3016 15.8868C24.0529 15.7465 23.7952 15.631 23.5314 15.5397C23.9918 15.4435 24.4597 15.3896 24.9255 15.3809C26.0859 15.3591 27.2311 15.6163 28.2065 16.1933C29.0015 16.6636 29.6869 17.3509 30.1777 18.2781C30.5865 19.0508 30.9938 19.8275 31.4413 20.5787C31.6276 20.9544 32.0798 21.1173 32.4644 20.9423L32.9409 20.7256L31.8641 24.8469L28.0809 23.3101L28.4026 23.1495L28.4016 23.1473L28.421 23.1373C28.8002 22.9351 28.9436 22.4637 28.7414 22.0845C28.7067 22.0197 28.4946 21.6192 28.2868 21.2269C27.5867 19.9053 26.8662 18.4903 25.9296 17.3207ZM1.77236 6.66289L0.789643 10.8793C0.734565 11.1169 0.957416 11.3341 1.25732 11.3341H48.7418C49.0416 11.3341 49.2644 11.1169 49.2094 10.8793L48.2267 6.66289C47.9062 5.28867 46.4522 4.31582 44.7191 4.31582H31.6518V2.87803C31.6518 2.33018 31.4282 1.83262 31.0681 1.47246C30.7079 1.1123 30.2103 0.888672 29.6625 0.888672H20.3363C19.7886 0.888672 19.291 1.1123 18.9309 1.47246C18.5707 1.83262 18.3471 2.33018 18.3471 2.87793V4.31572H5.27988C3.54677 4.31582 2.09277 5.28867 1.77236 6.66289ZM30.0894 4.31582H19.9097V2.87803C19.9097 2.76152 19.958 2.65498 20.0357 2.57725C20.1135 2.49951 20.22 2.45117 20.3365 2.45117H29.6627C29.7792 2.45117 29.8857 2.49951 29.9635 2.57715C30.0412 2.65488 30.0894 2.76143 30.0894 2.87793V4.31582ZM11.8935 26.0911L18.4394 24.2936L19.3591 30.9289L17.6177 29.7769C16.5265 31.5359 15.5007 33.0699 14.9682 34.4527C15.7973 36.0757 17.8634 36.2853 20.2714 35.7362L24.9252 40.3674L19.06 40.3258C18.9654 40.3267 18.8719 40.3252 18.7795 40.3212C13.8613 40.2688 9.32324 34.3256 12.2833 29.6086C12.7306 28.8957 13.2436 28.0835 13.6525 27.3478L11.8935 26.0911ZM34.62 35.0711C35.611 33.5416 34.7698 31.683 33.0904 29.8723L34.7705 23.4422L37.6603 28.591C37.7084 28.6724 37.7538 28.7542 37.7967 28.8361C40.2103 33.1215 37.3325 40.0232 31.7675 39.8183C30.9265 39.7873 29.9664 39.7491 29.1248 39.7629L28.9162 41.9147L24.0864 37.1446L29.3729 33.0304L29.2459 35.1145C31.3149 35.18 33.1562 35.3013 34.62 35.0711ZM18.3423 18.1838C20.8471 13.9513 28.2624 12.9932 30.8672 17.9148C31.261 18.6588 31.7078 19.5092 32.1406 20.2312L34.1085 19.3359L32.3923 25.9037L26.1859 23.3825L28.0544 22.4505C27.0766 20.6259 26.2609 18.9705 25.3297 17.818C23.5097 17.7245 22.3047 19.3314 21.5762 21.6912L15.2054 23.4407L18.1976 18.4251C18.244 18.343 18.2924 18.2638 18.3423 18.1838ZM43.9015 12.8966L40.5341 46.2199C40.3677 47.8622 38.8328 49.1103 36.9795 49.1103H13.019C11.1657 49.1103 9.63085 47.8622 9.46474 46.2199L6.09736 12.8966H43.9015ZM13.8935 37.1464C13.5811 36.7961 13.301 36.4177 13.0603 36.0184C12.46 35.0222 12.1094 33.9021 12.1214 32.7721C12.1311 31.8506 12.3841 30.9139 12.9427 30.0236L13.0199 29.9006C13.4479 29.2187 13.9254 28.4581 14.3209 27.7482C14.5285 27.4029 14.4382 26.9505 14.1044 26.7129L13.6775 26.408L17.7892 25.2789L18.3502 29.3267L18.0268 29.1145C17.661 28.8888 17.1814 29.0021 16.9556 29.3679C16.8495 29.5389 16.6443 29.866 16.4425 30.1878C15.1426 32.2604 14.036 34.0247 13.8387 35.7173C13.8169 35.9045 13.8072 36.1014 13.8092 36.3065C13.812 36.5917 13.8407 36.8725 13.8935 37.1464Z" fill="#F8F8FA"/>
</g>
<defs>
<clipPath id="clip0_116_2787">
<rect width="50" height="50" fill="white"/>
</clipPath>
</defs>
</svg>
