<svg width="50" height="50" viewBox="0 0 50 50" fill="none" xmlns="http://www.w3.org/2000/svg">
<path fill-rule="evenodd" clip-rule="evenodd" d="M26.0724 25.3804C26.0638 26.831 25.4692 28.1672 24.4745 29.2372H23.5335C21.4894 29.2372 19.6669 30.2236 18.5177 31.7442C18.4497 31.7456 18.3815 31.7464 18.3132 31.7464C14.0538 31.7464 10.5961 28.9165 10.5543 25.4126C15.6697 24.3398 20.8399 24.2747 26.0724 25.3804ZM30.0581 30.7997C30.0582 33.9479 30.058 37.0961 30.058 40.2444V40.5749C34.0353 41.5874 37.4852 43.7613 40.7506 45.8409V25.0724C37.6356 26.7739 33.9642 29.2169 30.0581 30.4006V30.7997ZM44.1447 24.3423C43.6786 24.0322 43.1076 23.9017 42.5915 24.1376C42.4993 24.1798 42.4064 24.2231 42.313 24.2676V46.8316C42.4024 46.8877 42.4918 46.9436 42.5811 46.9993C43.0644 47.3005 43.6717 47.1108 44.1403 46.8008C44.609 46.4909 44.8648 46.0283 44.8648 45.4901V38.2176V32.923V25.6502C44.8648 25.1139 44.6108 24.6525 44.1447 24.3423ZM25.4362 45.6214C25.4362 46.4627 26.1245 47.151 26.9659 47.151C27.8072 47.151 28.4955 46.4627 28.4955 45.6214V41.8069L25.4362 41.807V45.6214ZM46.5714 32.9229H46.4272V38.2175H46.5714C48.0274 38.2175 49.2187 37.0263 49.2187 35.5702C49.2187 34.1141 48.0275 32.9229 46.5714 32.9229ZM23.8737 41.807H23.5334C20.0736 41.807 17.2485 38.9817 17.2485 35.522C17.2485 34.7551 17.3885 33.9999 17.66 33.2896C15.563 33.1651 13.499 32.4398 11.8635 31.1036C10.2218 29.7623 9.13232 27.8855 9.004 25.7689C8.74473 25.8336 8.48555 25.901 8.22656 25.9708C4.26348 27.0397 0.78125 29.4528 0.78125 33.7048V47.1509H7.95186V36.8059C7.95186 36.3745 8.30166 36.0247 8.73311 36.0247C9.16455 36.0247 9.51436 36.3745 9.51436 36.8059V47.151H24.2798C24.0215 46.6996 23.8737 46.1773 23.8737 45.6214V41.807ZM28.4784 25.9708C28.1934 25.8912 27.9085 25.815 27.6237 25.7423C27.5516 27.0141 27.1322 28.2006 26.4538 29.2373H28.5098L29.6049 28.9054C30.6151 28.5993 31.5952 28.211 32.5549 27.7708C31.3655 26.9729 29.954 26.3833 28.4784 25.9708ZM30.058 45.6214C30.058 46.1773 29.9103 46.6996 29.652 47.151H35.9237V44.7245C34.0595 43.6758 32.1245 42.7646 30.058 42.1916V45.6214ZM23.5334 30.7998H28.4956C28.4958 33.948 28.4955 37.0962 28.4955 40.2444L25.4362 40.2445H23.8737H23.5334C20.936 40.2445 18.811 38.1194 18.811 35.522C18.811 32.9247 20.936 30.7998 23.5334 30.7998ZM27.2063 37.0871C27.2063 36.6556 26.8564 36.3058 26.425 36.3058H22.2705C21.8391 36.3058 21.4893 36.6556 21.4893 37.0871C21.4893 37.5185 21.8391 37.8683 22.2705 37.8683H26.425C26.8564 37.8683 27.2063 37.5185 27.2063 37.0871ZM26.425 33.1759H22.2705C21.8391 33.1759 21.4893 33.5257 21.4893 33.9572C21.4893 34.3886 21.8391 34.7384 22.2705 34.7384H26.425C26.8564 34.7384 27.2063 34.3886 27.2063 33.9572C27.2063 33.5257 26.8564 33.1759 26.425 33.1759ZM26.8583 10.8818H28.3125C28.3891 6.34829 25.9166 5.28549 23.4908 4.37924C13.9716 0.823188 9.43936 3.65717 8.72715 10.8818H9.84668H26.8583ZM26.9491 12.4718C26.9491 12.4626 26.9491 12.4535 26.9491 12.4443H9.75596V12.4718C9.75596 12.9943 9.78291 13.5085 9.83516 14.0122L13.6749 14.6232C13.9542 14.0643 14.5318 13.6804 15.1991 13.6804C15.8579 13.6804 16.4294 14.0545 16.7125 14.602H19.9927C20.2759 14.0546 20.8473 13.6804 21.5061 13.6804C22.1727 13.6804 22.7499 14.0635 23.0295 14.6216L26.8571 14.131C26.9178 13.5895 26.9491 13.0355 26.9491 12.4718ZM26.5852 15.7351C25.5198 20.384 22.2371 23.7703 18.3524 23.7703C14.439 23.7703 11.1362 20.3332 10.0964 15.6306L13.7074 16.2053C13.9975 16.7304 14.5566 17.0861 15.199 17.0861C15.8578 17.0861 16.4292 16.7119 16.7124 16.1645H19.9926C20.2758 16.7119 20.8472 17.0861 21.506 17.0861C22.1528 17.0861 22.7154 16.7254 23.0037 16.1942L26.5852 15.7351ZM20.7391 19.7768C20.456 19.4532 19.9641 19.4205 19.6404 19.7036C19.2788 20.0204 18.8843 20.1522 18.4569 20.0988C17.949 20.0353 17.3678 19.7346 16.7131 19.1966C16.3811 18.9236 15.8905 18.9714 15.6175 19.3035C15.3444 19.6355 15.3923 20.126 15.7243 20.3991C16.6163 21.132 17.4642 21.5488 18.2677 21.6492C19.1518 21.7596 19.9512 21.5017 20.6658 20.8755C20.9894 20.5923 21.0222 20.1004 20.7391 19.7768Z" fill="url(#paint0_linear_116_2570)"/>
<defs>
<linearGradient id="paint0_linear_116_2570" x1="7.75192" y1="52.9216" x2="49.9943" y2="6.73605" gradientUnits="userSpaceOnUse">
<stop stop-color="#3766D0"/>
<stop offset="1" stop-color="#69248F"/>
</linearGradient>
</defs>
</svg>
