<svg width="50" height="50" viewBox="0 0 50 50" fill="none" xmlns="http://www.w3.org/2000/svg">
<path fill-rule="evenodd" clip-rule="evenodd" d="M27.6396 44.2001H39.4416C41.8246 44.2001 43.7758 42.2488 43.7758 39.866V6.74678C43.7758 4.36347 41.8256 2.41269 39.4416 2.41269H32.09V8.26445L20.1232 8.30322V2.4126H12.7716C10.3877 2.4126 8.4374 4.36269 8.4374 6.74668V19.7984C9.58945 19.9235 10.723 19.8034 11.9253 19.4889C13.9737 18.9529 16.0345 17.9387 17.9609 17.0629L18.4803 16.8269L18.9996 17.0629C20.9261 17.9387 22.9868 18.9529 25.0353 19.4889C26.8611 19.9667 28.5293 19.9959 30.3431 19.3985L31.9905 18.856V24.9705L34.23 23.1494C34.4979 22.9314 34.892 22.9722 35.1099 23.2401C35.3278 23.5081 35.2871 23.9021 35.0191 24.12L31.9905 26.5828V33.4371C31.9904 37.5716 30.3427 41.384 27.6396 44.2001ZM16.5213 13.7115C16.1748 13.7115 15.8938 13.4305 15.8938 13.0841C15.8938 12.7376 16.1749 12.4566 16.5213 12.4566H35.6921C36.0386 12.4566 36.3195 12.7376 36.3195 13.0841C36.3195 13.4306 36.0385 13.7115 35.6921 13.7115H16.5213ZM30.8353 2.4126V7.01357L21.3781 7.04433V2.4125L30.8353 2.4126ZM6.2248 20.5904C10.4947 21.9966 13.9181 20.2792 18.4803 18.2053C23.0425 20.2792 26.4658 21.9967 30.7356 20.5904V25.9909L20.1054 34.6353L14.9134 30.1479C14.6521 29.922 14.2571 29.9504 14.0311 30.2116C13.8051 30.4728 13.8335 30.8679 14.0947 31.0939L19.6837 35.9244C19.919 36.1281 20.2633 36.125 20.4943 35.9313L30.7354 27.6033V33.437C30.7354 40.6077 25.3854 46.5886 18.4801 47.5874C11.5747 46.5886 6.22461 40.6078 6.22461 33.437V20.5904H6.2248Z" fill="#F8F8FA"/>
</svg>
