<svg width="19" height="19" viewBox="0 0 19 19" fill="none" xmlns="http://www.w3.org/2000/svg">
<path d="M9.5 1.1875C11.7046 1.1875 13.8189 2.06328 15.3778 3.62217C16.9367 5.18107 17.8125 7.29539 17.8125 9.5C17.8125 11.7046 16.9367 13.8189 15.3778 15.3778C13.8189 16.9367 11.7046 17.8125 9.5 17.8125C7.29539 17.8125 5.18107 16.9367 3.62217 15.3778C2.06328 13.8189 1.1875 11.7046 1.1875 9.5C1.1875 7.29539 2.06328 5.18107 3.62217 3.62217C5.18107 2.06328 7.29539 1.1875 9.5 1.1875ZM8.4645 11.1399L6.61794 9.29219C6.55174 9.22599 6.47315 9.17348 6.38666 9.13765C6.30016 9.10182 6.20746 9.08338 6.11384 9.08338C6.02022 9.08338 5.92752 9.10182 5.84103 9.13765C5.75454 9.17348 5.67595 9.22599 5.60975 9.29219C5.47606 9.42588 5.40095 9.60721 5.40095 9.79628C5.40095 9.98535 5.47606 10.1667 5.60975 10.3004L7.961 12.6516C8.02701 12.7182 8.10554 12.771 8.19206 12.807C8.27858 12.843 8.37137 12.8616 8.46509 12.8616C8.55882 12.8616 8.65161 12.843 8.73813 12.807C8.82465 12.771 8.90318 12.7182 8.96919 12.6516L13.8379 7.78169C13.905 7.71576 13.9584 7.63721 13.995 7.55056C14.0315 7.46391 14.0506 7.37087 14.051 7.27682C14.0515 7.18276 14.0333 7.08956 13.9975 7.00257C13.9617 6.91558 13.9091 6.83653 13.8426 6.76999C13.7762 6.70344 13.6972 6.65072 13.6102 6.61485C13.5233 6.57898 13.4301 6.56068 13.3361 6.56101C13.242 6.56133 13.1489 6.58028 13.0623 6.61675C12.9756 6.65322 12.8969 6.70649 12.8309 6.7735L8.4645 11.1399Z" fill="url(#paint0_linear_116_2673)"/>
<defs>
<linearGradient id="paint0_linear_116_2673" x1="3.58002" y1="19.978" x2="19.4952" y2="4.0627" gradientUnits="userSpaceOnUse">
<stop stop-color="#3766D0"/>
<stop offset="1" stop-color="#69248F"/>
</linearGradient>
</defs>
</svg>
