<svg width="50" height="50" viewBox="0 0 50 50" fill="none" xmlns="http://www.w3.org/2000/svg">
<g clip-path="url(#clip0_116_2907)">
<path fill-rule="evenodd" clip-rule="evenodd" d="M33.4226 9.07002C33.4226 9.50147 33.0728 9.85127 32.6413 9.85127C32.2099 9.85127 31.8601 9.50147 31.8601 9.07002C31.8601 6.56553 32.8753 4.29795 34.5166 2.65664C36.158 1.01523 38.4255 0 40.93 0C43.4345 0 45.702 1.01523 47.3434 2.65664C48.9848 4.29795 50 6.56543 50 9.07002C50 11.5745 48.9848 13.8421 47.3435 15.4834C45.702 17.1247 43.4346 18.1399 40.9301 18.1399C40.4986 18.1399 40.1488 17.7901 40.1488 17.3587C40.1488 16.9272 40.4986 16.5774 40.9301 16.5774C43.0033 16.5774 44.8802 15.7371 46.2388 14.3786C47.5973 13.0201 48.4375 11.1432 48.4375 9.07002C48.4375 6.99688 47.5972 5.11992 46.2387 3.76133C44.8802 2.40273 43.0032 1.5625 40.93 1.5625C38.8567 1.5625 36.9799 2.40273 35.6213 3.76133C34.2628 5.11982 33.4226 6.99678 33.4226 9.07002ZM9.07002 45.3335C11.5021 45.3335 13.4735 43.362 13.4735 40.93C13.4735 38.4979 11.5021 36.5265 9.07002 36.5265C6.63809 36.5265 4.6665 38.4979 4.6665 40.93C4.6665 43.362 6.63799 45.3335 9.07002 45.3335ZM40.93 36.5266C38.4979 36.5266 36.5265 38.498 36.5265 40.9301C36.5265 43.3621 38.4979 45.3336 40.93 45.3336C43.362 45.3336 45.3335 43.3621 45.3335 40.9301C45.3335 38.498 43.362 36.5266 40.93 36.5266ZM36.5265 9.07002C36.5265 11.5021 38.4979 13.4735 40.93 13.4735C43.362 13.4735 45.3335 11.5021 45.3335 9.07002C45.3335 6.63809 43.362 4.6665 40.93 4.6665C38.498 4.6665 36.5265 6.63799 36.5265 9.07002ZM9.07002 13.4735C11.5021 13.4735 13.4735 11.5021 13.4735 9.07002C13.4735 6.63809 11.5021 4.6665 9.07002 4.6665C6.63809 4.6665 4.6665 6.63799 4.6665 9.07002C4.6665 11.502 6.63799 13.4735 9.07002 13.4735ZM16.3226 22.2906H12.826C12.3945 22.2906 12.0447 22.6404 12.0447 23.0719C12.0447 23.5033 12.3945 23.8531 12.826 23.8531H16.3226L16.3227 26.1473H12.8261C12.3946 26.1473 12.0448 26.4971 12.0448 26.9285C12.0448 27.36 12.3946 27.7098 12.8261 27.7098H16.3227L16.3228 30.0037H12.8262C12.3947 30.0037 12.0449 30.3535 12.0449 30.785C12.0449 31.2164 12.3947 31.5662 12.8262 31.5662H16.3228L16.3229 33.6775H18.4342V37.1742C18.4342 37.6057 18.784 37.9555 19.2154 37.9555C19.6469 37.9555 19.9967 37.6057 19.9967 37.1742V33.6776L22.2908 33.6775V37.1742C22.2908 37.6057 22.6406 37.9555 23.0721 37.9555C23.5035 37.9555 23.8533 37.6057 23.8533 37.1742V33.6776H26.1475V37.1742C26.1475 37.6057 26.4973 37.9555 26.9287 37.9555C27.3602 37.9555 27.71 37.6057 27.71 37.1742V33.6776L30.004 33.6775V37.1742C30.004 37.6057 30.3538 37.9555 30.7853 37.9555C31.2167 37.9555 31.5665 37.6057 31.5665 37.1742V33.6776L33.6778 33.6775V31.5662H37.1745C37.606 31.5662 37.9558 31.2164 37.9558 30.785C37.9558 30.3535 37.606 30.0037 37.1745 30.0037H33.6779L33.6778 27.7096H37.1745C37.606 27.7096 37.9558 27.3598 37.9558 26.9283C37.9558 26.4969 37.606 26.1471 37.1745 26.1471H33.6779L33.6778 23.8529H37.1745C37.606 23.8529 37.9558 23.5031 37.9558 23.0717C37.9558 22.6402 37.606 22.2904 37.1745 22.2904H33.6779L33.6778 19.9965H37.1745C37.606 19.9965 37.9558 19.6467 37.9558 19.2152C37.9558 18.7838 37.606 18.434 37.1745 18.434H33.6779L33.6778 16.3227H31.5665V12.8261C31.5665 12.3946 31.2167 12.0448 30.7853 12.0448C30.3538 12.0448 30.004 12.3946 30.004 12.8261V16.3227L27.7099 16.3228V12.8262C27.7099 12.3947 27.3601 12.0449 26.9286 12.0449C26.4972 12.0449 26.1474 12.3947 26.1474 12.8262V16.3228L23.8532 16.3229V12.8263C23.8532 12.3948 23.5034 12.045 23.072 12.045C22.6405 12.045 22.2907 12.3948 22.2907 12.8263V16.3229L19.9968 16.323V12.8264C19.9968 12.3949 19.647 12.0451 19.2155 12.0451C18.7841 12.0451 18.4343 12.3949 18.4343 12.8264V16.323L16.323 16.323V18.4344H12.8264C12.3949 18.4344 12.0451 18.7842 12.0451 19.2156C12.0451 19.6471 12.3949 19.9969 12.8264 19.9969H16.323L16.3226 22.2906ZM16.5774 40.93C16.5774 40.4985 16.9272 40.1487 17.3587 40.1487C17.7901 40.1487 18.1399 40.4985 18.1399 40.93C18.1399 43.4345 17.1247 45.702 15.4834 47.3434C13.842 48.9848 11.5745 50 9.07002 50C6.56553 50 4.29795 48.9848 2.65664 47.3435C1.01523 45.702 0 43.4346 0 40.93C0 38.4255 1.01523 36.1579 2.65664 34.5166C4.29795 32.8752 6.56553 31.86 9.07002 31.86C9.50147 31.86 9.85127 32.2098 9.85127 32.6412C9.85127 33.0727 9.50147 33.4225 9.07002 33.4225C6.99688 33.4225 5.11992 34.2628 3.76133 35.6213C2.40273 36.9799 1.5625 38.8568 1.5625 40.93C1.5625 43.0032 2.40283 44.8801 3.76133 46.2387C5.11982 47.5973 6.99678 48.4375 9.07002 48.4375C11.1433 48.4375 13.0201 47.5972 14.3787 46.2387C15.7372 44.8802 16.5774 43.0032 16.5774 40.93ZM31.8601 40.93C31.8601 40.4985 32.2099 40.1487 32.6413 40.1487C33.0728 40.1487 33.4226 40.4985 33.4226 40.93C33.4226 43.0032 34.2628 44.8801 35.6214 46.2387C36.9799 47.5973 38.8568 48.4375 40.93 48.4375C43.0032 48.4375 44.8801 47.5972 46.2387 46.2387C47.5973 44.8802 48.4375 43.0032 48.4375 40.93C48.4375 38.8568 47.5972 36.9799 46.2387 35.6213C44.8802 34.2627 43.0032 33.4225 40.93 33.4225C40.4985 33.4225 40.1487 33.0727 40.1487 32.6412C40.1487 32.2098 40.4985 31.86 40.93 31.86C43.4345 31.86 45.702 32.8752 47.3434 34.5166C48.9848 36.158 50 38.4255 50 40.93C50 43.4345 48.9848 45.702 47.3435 47.3434C45.702 48.9848 43.4346 50 40.93 50C38.4255 50 36.1579 48.9848 34.5166 47.3435C32.8753 45.702 31.8601 43.4346 31.8601 40.93ZM18.1399 9.07002C18.1399 9.50147 17.7901 9.85127 17.3587 9.85127C16.9272 9.85127 16.5774 9.50147 16.5774 9.07002C16.5774 6.99678 15.7371 5.11992 14.3786 3.76133C13.0201 2.40273 11.1432 1.5625 9.07002 1.5625C6.99688 1.5625 5.11992 2.40273 3.76133 3.76133C2.40273 5.11982 1.5625 6.99678 1.5625 9.07002C1.5625 11.1433 2.40283 13.0201 3.76133 14.3787C5.11992 15.7372 6.99678 16.5775 9.07002 16.5775C9.50147 16.5775 9.85127 16.9273 9.85127 17.3588C9.85127 17.7902 9.50147 18.14 9.07002 18.14C6.56553 18.14 4.29795 17.1248 2.65664 15.4835C1.01523 13.842 0 11.5745 0 9.07002C0 6.56543 1.01523 4.29795 2.65664 2.65664C4.29795 1.01523 6.56543 0 9.07002 0C11.5745 0 13.8421 1.01523 15.4834 2.65654C17.1247 4.29795 18.1399 6.56543 18.1399 9.07002Z" fill="#F8F8FA"/>
</g>
<defs>
<clipPath id="clip0_116_2907">
<rect width="50" height="50" fill="white"/>
</clipPath>
</defs>
</svg>
