<svg width="50" height="50" viewBox="0 0 50 50" fill="none" xmlns="http://www.w3.org/2000/svg">
<path fill-rule="evenodd" clip-rule="evenodd" d="M43.2613 31.3412C41.4962 31.948 40.2276 33.6226 40.2276 35.5936C40.2276 36.9383 40.8183 38.1449 41.7541 38.9689V34.9466L43.2386 34.0896L44.723 33.2324L46.2076 34.0896L47.6921 34.9466V38.9689C48.6279 38.1449 49.2186 36.9383 49.2186 35.5936C49.2186 33.6225 47.95 31.9479 46.185 31.3413C46.7858 30.8944 47.1752 30.1789 47.1752 29.3725C47.1752 28.2914 46.4755 27.3737 45.5043 27.0475V22.6722C45.5043 20.9464 44.7987 19.3779 43.6622 18.2413C42.6444 17.2235 41.2803 16.5515 39.767 16.4222V17.9923C40.8488 18.1163 41.8228 18.6113 42.5575 19.3461C43.4117 20.2003 43.9419 21.3777 43.9419 22.6722V27.0475C42.9707 27.3736 42.2709 28.2914 42.2709 29.3725C42.2711 30.1789 42.6604 30.8944 43.2613 31.3412ZM21.3994 36.7729C20.1813 37.7987 19.4074 39.3352 19.4074 41.0523C19.4074 44.141 21.9113 46.6449 25 46.6449C28.0887 46.6449 30.5926 44.141 30.5926 41.0523C30.5926 39.3352 29.8187 37.7987 28.6006 36.7729C27.6277 35.9534 26.3716 35.4598 25 35.4598C23.6285 35.4598 22.3723 35.9535 21.3994 36.7729ZM22.2037 41.0523C22.2037 39.508 23.4557 38.2561 25 38.2561C26.5443 38.2561 27.7963 39.508 27.7963 41.0523C27.7963 42.5967 26.5443 43.8486 25 43.8486C23.4557 43.8486 22.2037 42.5967 22.2037 41.0523ZM18.7788 9.37842V17.6352C18.7788 19.3451 19.479 20.9003 20.6069 22.0281C21.7349 23.1561 23.29 23.8562 25 23.8562C26.71 23.8562 28.2651 23.1561 29.3931 22.0281C30.521 20.9002 31.2212 19.345 31.2212 17.6352V9.37842C31.2212 8.60469 31.3155 7.87822 31.5119 7.17139C31.7081 6.46533 32.0025 5.79365 32.4029 5.12881L32.861 4.36807C31.5679 3.71982 30.111 3.35449 28.573 3.35449H21.427C19.889 3.35449 18.4321 3.71982 17.139 4.36807L17.5971 5.12881C17.9975 5.79365 18.2919 6.46523 18.4881 7.17139C18.6845 7.87822 18.7788 8.60469 18.7788 9.37842ZM25 12.5202C27.4881 12.5202 29.5052 14.5372 29.5052 17.0254C29.5052 19.5135 27.4882 21.5305 25 21.5305C22.5119 21.5305 20.4949 19.5135 20.4949 17.0254C20.4949 14.5372 22.5119 12.5202 25 12.5202ZM17.2163 17.6352C17.2163 19.7765 18.0918 21.7226 19.5021 23.1329C20.9125 24.5433 22.8587 25.4188 25 25.4188C27.1413 25.4188 29.0874 24.5434 30.4978 23.1329C31.9081 21.7226 32.7836 19.7765 32.7836 17.6352V9.37842C32.7836 8.73496 32.8581 8.14492 33.0134 7.58633C33.1688 7.02686 33.4089 6.48359 33.7396 5.93447L34.1951 5.17793C36.6196 6.93145 38.2046 9.78272 38.2046 12.9861V21.375C38.2046 27.9898 34.8917 33.6661 30.167 36.103C29.9908 35.9192 29.804 35.7439 29.607 35.5779C28.3143 34.4892 26.6902 33.8975 24.9999 33.8975C23.3097 33.8975 21.6855 34.4892 20.3928 35.5779C20.1957 35.7439 20.009 35.9192 19.8328 36.103C15.1082 33.6661 11.7953 27.9899 11.7953 21.375C11.7953 17.9727 11.7953 16.3885 11.7953 12.9861C11.7953 9.78262 13.3803 6.93145 15.8048 5.17793L16.2604 5.93447C16.5911 6.48369 16.8311 7.02695 16.9865 7.58633C17.1417 8.14492 17.2163 8.73496 17.2163 9.37842V17.6352ZM21.5823 28.8621H28.4177C28.8491 28.8621 29.1989 28.5123 29.1989 28.0809C29.1989 27.6494 28.8491 27.2996 28.4177 27.2996H21.5823C21.1509 27.2996 20.8011 27.6494 20.8011 28.0809C20.8011 28.5123 21.1509 28.8621 21.5823 28.8621ZM21.5823 31.736H28.4177C28.8491 31.736 29.1989 31.3862 29.1989 30.9548C29.1989 30.5233 28.8491 30.1735 28.4177 30.1735H21.5823C21.1509 30.1735 20.8011 30.5233 20.8011 30.9548C20.8011 31.3863 21.1509 31.736 21.5823 31.736ZM10.2329 17.9923C9.15098 18.1163 8.17705 18.6113 7.44238 19.3461C6.58828 20.2002 6.05801 21.3777 6.05801 22.6722V27.0475C7.0292 27.3736 7.729 28.2914 7.729 29.3725C7.729 30.1789 7.33975 30.8943 6.73887 31.3413C8.50391 31.948 9.77236 33.6225 9.77236 35.5936C9.77236 36.9383 9.18174 38.1449 8.2459 38.9689V34.9466L6.76143 34.0896L5.27695 33.2324L3.79238 34.0896L2.30791 34.9466V38.9689C1.37197 38.1449 0.78125 36.9383 0.78125 35.5936C0.78125 33.6226 2.04971 31.948 3.81475 31.3413C3.21387 30.8943 2.82471 30.1789 2.82471 29.3726C2.82471 28.2915 3.52441 27.3738 4.49551 27.0476V22.6723C4.49551 20.9465 5.20098 19.378 6.3376 18.2415C7.35547 17.2236 8.71953 16.5517 10.2329 16.4224V17.9619V17.9923Z" fill="url(#paint0_linear_116_2580)"/>
<defs>
<linearGradient id="paint0_linear_116_2580" x1="7.75191" y1="52.2836" x2="48.9339" y2="6.20527" gradientUnits="userSpaceOnUse">
<stop stop-color="#3766D0"/>
<stop offset="1" stop-color="#69248F"/>
</linearGradient>
</defs>
</svg>
