<svg width="50" height="50" viewBox="0 0 50 50" fill="none" xmlns="http://www.w3.org/2000/svg">
<path fill-rule="evenodd" clip-rule="evenodd" d="M23.0679 16.8435V12.4388C16.6998 13.3734 11.811 18.8587 11.811 25.4862C11.811 28.65 12.9255 31.5531 14.7825 33.8256L9.80225 37.7993C7.0748 34.4371 5.43945 30.1529 5.43945 25.4861C5.43945 15.3354 13.1721 6.99297 23.0678 6.02266V0.585938L32.7283 8.71475L23.0679 16.8435ZM26.648 49.4141V44.9767C36.6792 44.1395 44.5598 35.7338 44.5598 25.4863C44.5598 20.9324 43.0036 16.7418 40.3937 13.4178L35.4125 17.3923C37.152 19.6266 38.1883 22.4354 38.1883 25.4862C38.1883 32.2118 33.1539 37.7612 26.648 38.5725V33.1565L16.9874 41.2854L26.648 49.4141Z" fill="#F8F8FA"/>
</svg>
