<svg width="36" height="36" viewBox="0 0 36 36" fill="none" xmlns="http://www.w3.org/2000/svg">
<path d="M21.4242 5.25196L9.7647 17.213C9.55992 17.4231 9.44531 17.7048 9.44531 17.9982C9.44531 18.2916 9.55992 18.5734 9.7647 18.7835L21.4242 30.749C21.5196 30.8469 21.6336 30.9248 21.7596 30.978C21.8856 31.0311 22.021 31.0585 22.1577 31.0585C22.2944 31.0585 22.4298 31.0311 22.5558 30.978C22.6818 30.9248 22.7958 30.8469 22.8912 30.749C23.0875 30.548 23.1973 30.2783 23.1973 29.9975C23.1973 29.7166 23.0875 29.4469 22.8912 29.246L11.927 17.9982L22.8912 6.75271C23.0868 6.55189 23.1962 6.28265 23.1962 6.00234C23.1962 5.72202 23.0868 5.45278 22.8912 5.25196C22.7958 5.15399 22.6818 5.07612 22.5558 5.02295C22.4298 4.96978 22.2944 4.94238 22.1577 4.94238C22.021 4.94238 21.8856 4.96978 21.7596 5.02295C21.6336 5.07612 21.5196 5.15399 21.4242 5.25196Z" fill="#F8F8FA"/>
</svg>
