<svg width="50" height="50" viewBox="0 0 50 50" fill="none" xmlns="http://www.w3.org/2000/svg">
<g clip-path="url(#clip0_116_2860)">
<path fill-rule="evenodd" clip-rule="evenodd" d="M36.3543 17.9177H13.6452C13.4085 17.9177 13.1925 18.0151 13.036 18.1717C12.8795 18.3282 12.782 18.5442 12.782 18.7809V23.9977C12.782 24.2344 12.8795 24.4503 13.036 24.6068V24.6094C13.191 24.7645 13.4067 24.8609 13.6452 24.8609H36.3543C36.5927 24.8609 36.8085 24.7645 36.9635 24.6094L36.966 24.6068C37.1211 24.4518 37.2175 24.236 37.2175 23.9977V18.7809C37.2175 18.5552 37.1312 18.35 36.9905 18.1973L36.9636 18.1717C36.807 18.0151 36.591 17.9177 36.3543 17.9177ZM41.0992 29.6751H38.5603V27.0666C38.5603 26.4706 38.3213 25.9284 37.935 25.531C38.3216 25.1323 38.5603 24.5907 38.5603 23.9977V18.7809C38.5603 18.1971 38.3289 17.6631 37.9528 17.2662L37.9127 17.2225C37.5134 16.8232 36.9616 16.5749 36.3543 16.5749H13.6452C13.0379 16.5749 12.4861 16.8231 12.0868 17.2225C11.6874 17.6218 11.4393 18.1735 11.4393 18.7809V23.9977C11.4393 24.5929 11.6776 25.1349 12.0633 25.5322C11.6776 25.9296 11.4393 26.4714 11.4393 27.0666V29.6751H8.90039C4.46269 29.6751 0.832031 26.0445 0.832031 21.6068C0.832031 18.2418 2.92012 15.3412 5.86436 14.1357C5.85039 13.8894 5.84248 13.6413 5.84248 13.3914C5.84248 6.27003 11.6156 0.496887 18.737 0.496887C22.2207 0.496887 25.3812 1.87892 27.7016 4.12413C28.929 3.6839 30.252 3.44415 31.6309 3.44415C37.6323 3.44415 42.5726 7.98605 43.2039 13.8196C46.6294 14.7515 49.1673 17.897 49.1673 21.607C49.1674 26.0444 45.5367 29.6751 41.0992 29.6751ZM12.1106 49.5032C11.7399 49.5032 11.4393 49.2026 11.4393 48.8319C11.4393 48.4612 11.7399 48.1606 12.1106 48.1606H24.3284V42.775H25.6712V48.1606H37.8889C38.2596 48.1606 38.5603 48.4612 38.5603 48.8319C38.5603 49.2026 38.2596 49.5032 37.8889 49.5032H12.1106ZM22.7729 22.0608C22.4022 22.0608 22.1016 21.7601 22.1016 21.3894C22.1016 21.0187 22.4022 20.718 22.7729 20.718H33.6673C34.038 20.718 34.3387 21.0187 34.3387 21.3894C34.3387 21.7601 34.038 22.0608 33.6673 22.0608H22.7729ZM17.6519 20.5262V22.2523H15.9258V20.5262H17.6519ZM15.2544 19.1834H18.3232C18.6939 19.1834 18.9946 19.4841 18.9946 19.8548V22.9236C18.9946 23.2943 18.6939 23.595 18.3232 23.595H15.2544C14.8837 23.595 14.583 23.2943 14.583 22.9236V19.8548C14.583 19.4841 14.8837 19.1834 15.2544 19.1834ZM36.3543 26.2036H13.6452C13.4195 26.2036 13.2144 26.29 13.0616 26.4306L13.036 26.4576C12.8795 26.6142 12.782 26.83 12.782 27.0667V32.2835C12.782 32.5202 12.8795 32.7361 13.036 32.8927V32.8952C13.191 33.0503 13.4067 33.1467 13.6452 33.1467H36.3543C36.5927 33.1467 36.8085 33.0502 36.9635 32.8952L36.966 32.8927C37.1211 32.7377 37.2175 32.5219 37.2175 32.2835V27.0667C37.2175 26.83 37.12 26.6142 36.9635 26.4576V26.4551C36.8085 26.3 36.5927 26.2036 36.3543 26.2036ZM22.7729 30.3465H33.6673C34.038 30.3465 34.3387 30.0458 34.3387 29.6751C34.3387 29.3044 34.038 29.0037 33.6673 29.0037H22.7729C22.4022 29.0037 22.1016 29.3044 22.1016 29.6751C22.1016 30.0458 22.4023 30.3465 22.7729 30.3465ZM17.6519 28.8119H15.9258V30.5381H17.6519V28.8119ZM15.2544 27.4692C14.8837 27.4692 14.583 27.7699 14.583 28.1405V31.2094C14.583 31.5801 14.8837 31.8807 15.2544 31.8807H18.3232C18.6939 31.8807 18.9946 31.58 18.9946 31.2094V28.1405C18.9946 27.7698 18.6939 27.4692 18.3232 27.4692H15.2544ZM36.3543 34.4894H13.6452C13.4085 34.4894 13.1925 34.5868 13.036 34.7434C12.8795 34.8999 12.782 35.1158 12.782 35.3526V40.5693C12.782 40.8061 12.8795 41.0219 13.036 41.1784V41.181C13.191 41.336 13.4067 41.4324 13.6452 41.4324H36.3543C36.5799 41.4324 36.7851 41.3461 36.9379 41.2055L36.9636 41.1784C37.1201 41.0219 37.2176 40.8061 37.2176 40.5693V35.3526C37.2176 35.1269 37.1312 34.9218 36.9906 34.769L36.9637 34.7433C36.807 34.5867 36.591 34.4894 36.3543 34.4894ZM22.7729 38.6322C22.4022 38.6322 22.1016 38.3316 22.1016 37.9609C22.1016 37.5901 22.4022 37.2895 22.7729 37.2895H33.6673C34.038 37.2895 34.3387 37.5901 34.3387 37.9609C34.3387 38.3316 34.038 38.6322 33.6673 38.6322H22.7729ZM17.6519 37.0979V38.8239H15.9258V37.0979H17.6519ZM15.2544 35.7551H18.3232C18.6939 35.7551 18.9946 36.0558 18.9946 36.4265V39.4953C18.9946 39.866 18.6939 40.1667 18.3232 40.1667H15.2544C14.8837 40.1667 14.583 39.866 14.583 39.4953V36.4265C14.583 36.0558 14.8837 35.7551 15.2544 35.7551Z" fill="#F8F8FA"/>
</g>
<defs>
<clipPath id="clip0_116_2860">
<rect width="50" height="50" fill="white"/>
</clipPath>
</defs>
</svg>
