<svg width="36" height="36" viewBox="0 0 36 36" fill="none" xmlns="http://www.w3.org/2000/svg">
<path d="M11.9839 5.24971C11.7876 5.45063 11.6777 5.72035 11.6777 6.00121C11.6777 6.28207 11.7876 6.55179 11.9839 6.75271L22.9481 18.0005L11.9839 29.246C11.7876 29.4469 11.6777 29.7166 11.6777 29.9975C11.6777 30.2783 11.7876 30.548 11.9839 30.749C12.0792 30.8469 12.1933 30.9248 12.3193 30.978C12.4453 31.0311 12.5806 31.0585 12.7174 31.0585C12.8541 31.0585 12.9895 31.0311 13.1154 30.978C13.2414 30.9248 13.3555 30.8469 13.4509 30.749L25.1104 18.7857C25.3151 18.5756 25.4297 18.2938 25.4297 18.0005C25.4297 17.7071 25.3151 17.4253 25.1104 17.2152L13.4509 5.25196C13.3555 5.15399 13.2414 5.07612 13.1154 5.02295C12.9895 4.96978 12.8541 4.94238 12.7174 4.94238C12.5806 4.94238 12.4453 4.96978 12.3193 5.02295C12.1933 5.07612 12.0792 5.15399 11.9839 5.25196V5.24971Z" fill="#F8F8FA"/>
</svg>
