<svg width="50" height="50" viewBox="0 0 50 50" fill="none" xmlns="http://www.w3.org/2000/svg">
<path fill-rule="evenodd" clip-rule="evenodd" d="M38.6387 5.28517C44.4538 10.9986 44.4538 20.262 38.6387 25.9756C32.8235 31.689 23.3952 31.689 17.5801 25.9756C11.7649 20.2622 11.7649 10.9986 17.5801 5.28517C23.395 -0.42839 32.8235 -0.42839 38.6387 5.28517ZM7.13595 44.812C6.84776 45.3182 7.0329 45.9623 7.54817 46.2454L12.3168 48.8664C12.8321 49.1497 13.4876 48.9676 13.7758 48.4614L20.8 36.1241C22.1758 33.7076 19.6848 34.7117 21.0607 32.295L21.6349 31.2866C20.334 30.768 19.0848 30.0864 17.9195 29.2421L17.3443 30.2526C15.9686 32.6689 15.5357 30.0584 14.16 32.4746L7.13595 44.812ZM34.7398 9.11587C32.909 7.31715 30.5091 6.41764 28.1094 6.41764C25.7096 6.41764 23.3097 7.31715 21.4788 9.11602C19.6481 10.9147 18.7325 13.2727 18.7325 15.6304C18.7325 17.9882 19.6479 20.346 21.4788 22.1449C23.3096 23.9437 25.7095 24.8431 28.1092 24.8431C30.5091 24.8431 32.9089 23.9436 34.7396 22.1449C36.5704 20.3461 37.4859 17.9882 37.4859 15.6304C37.486 13.2725 36.5705 10.9146 34.7398 9.11587ZM39.7913 15.6303C39.7913 12.693 38.6508 9.75558 36.3697 7.51443C34.0887 5.27327 31.0991 4.1527 28.1094 4.1527C25.1198 4.1527 22.1301 5.27327 19.849 7.51443C17.568 9.75558 16.4273 12.693 16.4273 15.6303C16.4273 18.5676 17.5678 21.5049 19.8489 23.746C22.1301 25.9873 25.1196 27.1079 28.1092 27.1079C31.0988 27.1079 34.0885 25.9873 36.3696 23.746C38.6506 21.505 39.7913 18.5677 39.7913 15.6303Z" fill="#F8F8FA"/>
</svg>
