<svg width="50" height="50" viewBox="0 0 50 50" fill="none" xmlns="http://www.w3.org/2000/svg">
<path fill-rule="evenodd" clip-rule="evenodd" d="M6.38379 4.97231C12.5135 6.31519 17.7442 3.84302 24.4072 0.805322C24.7975 0.627393 25.2031 0.627393 25.5934 0.805322C32.2563 3.84302 37.4871 6.31519 43.6168 4.97231C44.0542 4.87651 44.4701 4.97417 44.8189 5.25483C45.1677 5.5355 45.3521 5.92085 45.3521 6.36851V25.8299C45.3521 37.7379 36.4677 47.6699 25.0003 49.3287C13.5329 47.6698 4.64844 37.7378 4.64844 25.8298V6.3686C4.64844 5.92095 4.83301 5.5356 5.18174 5.25493C5.53057 4.97417 5.94648 4.87651 6.38379 4.97231ZM26.8962 35.3401C26.9759 35.1315 27.2097 35.0271 27.4182 35.1068C27.6268 35.1865 27.7313 35.4203 27.6515 35.6289L26.8396 37.7381C26.7781 37.8991 26.6247 37.9981 26.4619 37.9982V38H23.9449C23.7579 38 23.6005 37.8737 23.5531 37.7017L22.8352 35.8367C22.1882 35.6959 21.5616 35.4982 20.9608 35.2491C20.3517 34.9966 19.7686 34.6903 19.2175 34.3361L17.3517 35.1648C17.1946 35.2342 17.017 35.1955 16.9023 35.0809L16.901 35.0823L15.1211 33.3024C14.9887 33.1701 14.9668 32.9692 15.0552 32.8141L15.8669 30.9866C15.5127 30.4355 15.2064 29.8525 14.9539 29.2434C14.7048 28.6422 14.507 28.0152 14.366 27.3679L12.4652 26.6362C12.3042 26.5747 12.2052 26.4213 12.2051 26.2585H12.2034V23.7414C12.2034 23.5545 12.3297 23.397 12.5017 23.3497L14.3664 22.632C14.5073 21.9848 14.7051 21.358 14.9541 20.757C15.2066 20.1479 15.5129 19.5649 15.8672 19.014L15.0386 17.1483C14.9691 16.9912 15.0079 16.8136 15.1224 16.6989L15.1211 16.6976L16.9009 14.9177C17.0333 14.7854 17.2342 14.7635 17.3893 14.8519L19.2175 15.6639C19.7686 15.3096 20.3516 15.0033 20.9608 14.7508C21.5616 14.5018 22.1882 14.3041 22.8352 14.1633L23.5671 12.2618C23.6287 12.1008 23.7821 12.0018 23.9449 12.0018V12H26.4619C26.6489 12 26.8064 12.1263 26.8537 12.2983L27.6517 14.3717C27.7315 14.5802 27.6271 14.814 27.4184 14.8938C27.2099 14.9735 26.9761 14.8691 26.8964 14.6605L26.185 12.8125H24.2218L23.5229 14.6281C23.482 14.7699 23.3652 14.8842 23.2105 14.9144C22.5375 15.0466 21.8889 15.2441 21.2718 15.4998C20.639 15.7621 20.0397 16.0845 19.481 16.4596C19.3697 16.534 19.2236 16.5511 19.0922 16.493L17.2796 15.6879L15.8913 17.0763L16.6863 18.8663C16.7516 18.9931 16.7479 19.1506 16.6629 19.2775C16.2878 19.8361 15.9654 20.4354 15.7032 21.0681C15.4473 21.6853 15.2498 22.334 15.1176 23.0072L15.1162 23.0069C15.0902 23.1392 14.9988 23.2555 14.8637 23.3072L13.0159 24.0183V25.9817L14.8309 26.6804C14.9727 26.7212 15.087 26.838 15.1172 26.9927C15.2495 27.666 15.4471 28.3149 15.703 28.9323C15.9652 29.565 16.2876 30.1644 16.6627 30.7229C16.737 30.8342 16.7541 30.9803 16.696 31.1117L15.8913 32.9237L17.2797 34.3121L19.0699 33.517C19.1967 33.4516 19.3542 33.4554 19.4811 33.5403C20.0398 33.9154 20.6391 34.2378 21.2718 34.5001C21.8889 34.7559 22.5374 34.9534 23.2104 35.0856L23.2102 35.087C23.3424 35.1129 23.4587 35.2043 23.5104 35.3395L24.2218 37.1875H26.1851L26.8962 35.3401ZM31.3293 33.6956C31.3293 33.1543 31.3293 32.6129 31.3293 32.0714C31.3293 31.9675 31.2896 31.8635 31.2103 31.7842L28.7195 29.2934C28.6458 29.2185 28.5434 29.1722 28.4302 29.1722H26.0158V29.9847H28.262L30.5169 32.2397V33.6954C30.4375 33.7221 30.3596 33.757 30.2843 33.8005C29.6732 34.1533 29.4638 34.9347 29.8166 35.5458C30.1695 36.157 30.9508 36.3664 31.562 36.0135C32.1731 35.6607 32.3825 34.8793 32.0297 34.2682C31.8674 33.9871 31.6146 33.7911 31.3293 33.6956ZM31.8826 28.2744C31.4752 28.2744 31.0677 28.2744 30.6603 28.2744L29.39 27.0041C29.3163 26.9293 29.2139 26.8829 29.1007 26.8829H26.0158V27.6954H28.9325L30.2049 28.9678C30.2842 29.0472 30.3882 29.0868 30.4921 29.0869H31.8826C32.0524 29.5934 32.5306 29.9583 33.0943 29.9583C33.8 29.9583 34.372 29.3863 34.372 28.6806C34.372 27.9749 33.8 27.4029 33.0943 27.4029C32.5305 27.4029 32.0523 27.7679 31.8826 28.2744ZM35.3078 24.5938C32.2105 24.5938 29.1132 24.5937 26.0159 24.5938L26.0159 25.4062H35.3078C35.4775 25.9127 35.9557 26.2777 36.5194 26.2777C37.2251 26.2777 37.7971 25.7057 37.7971 25C37.7971 24.2943 37.2251 23.7223 36.5194 23.7223C35.9558 23.7223 35.4775 24.0873 35.3078 24.5938ZM31.8825 20.6793C31.4678 20.6793 31.0532 20.6793 30.6385 20.6793C30.5345 20.6793 30.4306 20.719 30.3513 20.7983L28.845 22.3046H26.0158V23.1171H29.0133C29.1265 23.1171 29.229 23.0707 29.3027 22.9959L30.8067 21.4918H31.8826C32.0523 21.9983 32.5306 22.3632 33.0943 22.3632C33.8 22.3632 34.372 21.7912 34.372 21.0855C34.372 20.3798 33.8 19.8078 33.0943 19.8078C32.5305 19.8078 32.0522 20.1728 31.8825 20.6793ZM30.5168 16.3047V17.7604L28.2619 20.0153H26.0158V20.8278H28.4301C28.5434 20.8278 28.6458 20.7814 28.7195 20.7066L31.2102 18.2158C31.2896 18.1365 31.3292 18.0325 31.3293 17.9286C31.3293 17.3872 31.3293 16.8457 31.3293 16.3044C31.6145 16.2089 31.8673 16.0129 32.0296 15.7319C32.3824 15.1208 32.173 14.3394 31.5619 13.9866C30.9507 13.6337 30.1694 13.8431 29.8165 14.4542C29.4637 15.0653 29.6731 15.8467 30.2842 16.1996C30.3596 16.2431 30.4374 16.278 30.5168 16.3047ZM25.2033 17.5593C21.0941 17.5593 17.7627 20.8906 17.7627 25.0001C17.7627 29.1093 21.0941 32.4407 25.2033 32.4407C25.2033 27.0346 25.2033 22.9654 25.2033 17.5593ZM23.0156 20.5899C22.8999 20.398 22.6505 20.3361 22.4585 20.4518C21.6773 20.9242 21.027 21.5944 20.5758 22.3939C20.1402 23.166 19.8917 24.0553 19.8917 25C19.8917 25.9447 20.1402 26.834 20.5758 27.606C21.0269 28.4055 21.6772 29.0757 22.4585 29.5481C22.6504 29.6638 22.8998 29.602 23.0155 29.41C23.1312 29.2181 23.0694 28.9687 22.8774 28.853C22.2127 28.451 21.661 27.8838 21.2804 27.2093C20.9135 26.559 20.7042 25.8054 20.7042 25C20.7042 24.1946 20.9135 23.4409 21.2804 22.7906C21.661 22.116 22.2127 21.5489 22.8774 21.1469C23.0694 21.0312 23.1312 20.7819 23.0156 20.5899Z" fill="#F8F8FA"/>
</svg>
