<svg width="50" height="50" viewBox="0 0 50 50" fill="none" xmlns="http://www.w3.org/2000/svg">
<path fill-rule="evenodd" clip-rule="evenodd" d="M24.9956 6.25762C26.7601 6.25762 28.1904 7.68779 28.1904 9.45224C28.1904 11.2168 26.76 12.647 24.9956 12.647C23.2314 12.647 21.801 11.2168 21.801 9.45224C21.801 7.68779 23.2314 6.25762 24.9956 6.25762ZM35.0504 40.4863C33.3577 36.6943 29.4932 34.044 24.9957 34.044C20.4984 34.044 16.6337 36.6943 14.9411 40.4863H35.0504ZM38.6849 45.4271C39.0314 45.4271 39.3123 45.1461 39.3123 44.7997C39.3123 44.4533 39.0313 44.1723 38.6849 44.1723H11.3068C10.9603 44.1723 10.6793 44.4533 10.6793 44.7997C10.6793 45.1461 10.9603 45.4271 11.3068 45.4271H38.6849ZM24.9956 32.7893C25.2056 32.7893 25.4148 32.7949 25.6231 32.8054V13.8576C25.4181 13.8866 25.2087 13.9019 24.9956 13.9019C24.7825 13.9019 24.5732 13.8867 24.3682 13.8576V32.8055C24.5766 32.7949 24.7857 32.7893 24.9956 32.7893ZM16.4203 19.3727C16.475 19.2205 16.4714 19.0473 16.3963 18.8899L10.2763 6.15556L20.5786 8.91601C20.6297 8.49121 20.7404 8.08486 20.9025 7.70556L9.2846 4.59258L9.28411 4.59404C8.99915 4.51758 8.69104 4.65244 8.55921 4.92812L1.86272 18.8617C1.78079 19.0134 1.76136 19.1979 1.82464 19.3728C2.43743 21.0679 3.45511 22.5084 4.73304 23.5195C5.9928 24.5162 7.50091 25.096 9.12269 25.096C10.7445 25.096 12.2525 24.5163 13.5122 23.5195C14.7903 22.5083 15.8079 21.0678 16.4203 19.3727ZM48.176 27.8813C48.2306 27.7293 48.2271 27.556 48.1519 27.3987L41.442 13.437C41.3827 13.3127 41.2822 13.207 41.1481 13.143C41.1126 13.1261 41.0763 13.1127 41.0398 13.1029L41.0403 13.1014L29.4133 9.98594C29.3624 10.4108 29.252 10.8173 29.0902 11.1967L39.9881 14.1167L33.6183 27.3706C33.5364 27.5223 33.5169 27.7068 33.5802 27.8816C34.193 29.5768 35.2107 31.0172 36.4886 32.0284C37.7484 33.0251 39.2565 33.605 40.8783 33.605C42.5001 33.605 44.0081 33.0253 45.2679 32.0284C46.5458 31.0171 47.5636 29.5766 48.176 27.8813ZM3.40765 18.532L9.12288 6.64033L14.8377 18.532H3.40765ZM40.8784 15.1491L46.5933 27.0408H35.1633L40.8784 15.1491Z" fill="#F8F8FA"/>
</svg>
