<svg width="50" height="50" viewBox="0 0 50 50" fill="none" xmlns="http://www.w3.org/2000/svg">
<path fill-rule="evenodd" clip-rule="evenodd" d="M32.5695 25.4891C33.2628 25.7698 33.9567 26.0501 34.647 26.3331C35.3345 26.6164 35.4934 26.6818 36.1917 25.8526C36.368 25.6431 36.5207 25.4119 36.6134 25.1808C36.7381 24.8696 36.7488 24.6108 36.4763 24.3814C35.9434 23.9338 34.3267 23.5933 33.5959 23.4119L32.5695 25.4891ZM7.84455 33.0718C11.488 31.5124 11.1996 33.1669 9.88078 35.108C8.56174 37.0489 8.96916 37.1441 7.84455 37.1441C6.58938 37.1441 3.36857 34.9874 7.84455 33.0718ZM9.2177 41.6651C9.98625 43.6623 10.1335 44.149 11.6406 44.0878C13.1475 44.0266 10.5559 46.5106 9.2177 46.5106C7.87951 46.5106 8.23029 46.3392 6.79484 44.0878C5.35939 41.8363 8.44904 39.6678 9.2177 41.6651ZM14.844 35.5471C14.0485 33.9015 13.0226 35.3842 12.8079 37.5833C12.5931 39.7822 13.7194 39.6193 14.844 39.6193C15.9687 39.6193 16.8802 38.7077 16.8802 37.5833C16.8802 36.4586 15.6395 37.1924 14.844 35.5471ZM40.5529 13.0998C41.1159 12.6279 41.7652 12.4198 42.4938 12.5341L43.3875 10.8958L42.2023 10.2115L40.5529 13.0998ZM40.0353 14.0064L35.2233 22.433C35.6553 22.5547 36.1024 22.6957 36.5015 22.856L36.5407 22.872C37.7851 20.7165 39.0296 18.5609 40.2741 16.4057C39.9165 15.418 39.8407 14.616 40.0353 14.0064ZM42.0522 13.8637C41.7408 13.8942 41.5081 14.0854 41.402 14.3778C41.2556 14.7795 41.2944 15.3868 41.657 16.2258L43.456 15.4399C43.3601 15.0074 43.1827 14.5346 42.8865 14.2009C42.6782 13.9661 42.3672 13.8327 42.0522 13.8637ZM43.7162 16.8033L41.9412 17.5787L41.3638 21.0947L41.8469 22.3952C42.1853 23.0379 42.5775 23.3865 42.9481 23.4787C43.3877 23.5875 43.7465 23.2974 43.9758 22.9494C44.4243 22.2688 44.6232 21.0846 44.2846 19.4864L43.7162 16.8033ZM23.8785 37.3434L29.1624 40.3941L29.7273 39.4158C27.9659 38.3989 26.2047 37.382 24.4435 36.3651L23.8785 37.3434ZM28.6587 41.6638L27.3365 48.7835L24.6097 47.2092L25.5388 44.7457C25.6705 44.3958 25.4937 44.0053 25.1438 43.8734C24.8757 43.7725 24.5838 43.8526 24.4028 44.053L22.5264 46.0062L21.2545 45.2722L23.0831 42.1051C23.2705 41.7815 23.16 41.3672 22.8364 41.1797C22.5738 41.0274 22.2508 41.0719 22.0384 41.2672L19.0635 44.007L17.5778 43.1494L23.0353 38.4173L28.6587 41.6638ZM28.6686 49.0213L30.0546 41.5572L31.238 39.5073C31.4254 39.184 31.3151 38.7694 30.9915 38.582L29.5223 37.7338L35.168 27.9554C35.8444 28.1019 36.286 27.8382 37.2257 26.7221C37.4902 26.4081 37.7222 26.053 37.87 25.6847C38.0237 25.302 38.0912 24.8999 38.0261 24.5014C37.9772 24.2029 37.8571 23.9173 37.6487 23.656L39.4945 20.4592L39.6865 28.8672L41.1751 47.8481C41.1948 48.1001 41.1208 48.3239 40.9546 48.5141C40.7885 48.7044 40.5767 48.808 40.3244 48.8224L38.2411 48.941C37.7686 48.9679 37.3572 48.629 37.2931 48.1599L35.2885 33.466C35.2389 33.0957 34.898 32.8357 34.5277 32.8855C34.2148 32.9276 33.9805 33.1776 33.9457 33.4775L31.9319 48.2387C31.8703 48.6899 31.4905 49.0212 31.0354 49.0212H28.6686V49.0213ZM28.3496 37.0567L27.1766 36.3795L32.6099 26.9683L33.8778 27.4814L28.3496 37.0567ZM26.9996 21.0136C26.9732 21.3301 27.1729 21.6318 27.49 21.722L32.2508 23.0777L31.2415 25.1202L25.46 24.4996C25.1935 24.4712 24.9614 24.3444 24.7986 24.159C24.634 23.9716 24.5376 23.7236 24.5437 23.4544L24.6771 17.6734C24.6771 16.8196 25.0279 16.1364 25.5901 15.5994C26.3208 14.9012 27.4014 14.4242 28.5643 14.1253C30.4104 13.6505 32.2424 13.4123 34.0609 13.3917C35.5789 13.3743 37.0932 13.5093 38.6031 13.7848L33.8636 22.0843C33.7075 22.0457 33.4779 21.9681 33.3206 21.9724L28.3536 20.5579L28.3628 18.4039C28.3642 18.0306 28.0629 17.7266 27.6895 17.7253C27.3161 17.7237 27.012 18.0252 27.0107 18.3986L26.9996 21.0136ZM33.9375 0.978699C36.5176 0.978699 38.6093 2.44921 38.6093 5.84012C38.6093 9.23124 36.5176 11.9803 33.9375 11.9803C31.3573 11.9803 29.2657 9.23124 29.2657 5.84012C29.2657 2.44921 31.3572 0.978699 33.9375 0.978699ZM28.5624 31.2705L31.3218 26.491L28.6237 26.2014C28.6071 27.8927 28.5865 29.5808 28.5624 31.2705Z" fill="#F8F8FA"/>
</svg>
