<svg width="19" height="19" viewBox="0 0 19 19" fill="none" xmlns="http://www.w3.org/2000/svg">
<path d="M5.8191 17.1534C5.60332 17.2668 5.3601 17.3176 5.11695 17.3C4.8738 17.2825 4.64043 17.1972 4.44323 17.0538C4.24603 16.9105 4.09287 16.7149 4.00109 16.489C3.9093 16.2632 3.88254 16.0161 3.92385 15.7759L4.62685 11.6766L1.65097 8.77557C1.47652 8.6054 1.35315 8.38982 1.29481 8.15319C1.23648 7.91657 1.2455 7.66835 1.32086 7.43659C1.39622 7.20482 1.53491 6.99877 1.72126 6.84171C1.9076 6.68464 2.13417 6.58285 2.37535 6.54782L6.49004 5.94932L8.33066 2.22057C8.43863 2.00226 8.60549 1.81848 8.81239 1.68999C9.01928 1.5615 9.25798 1.49341 9.50154 1.49341C9.74509 1.49341 9.98379 1.5615 10.1907 1.68999C10.3976 1.81848 10.5644 2.00226 10.6724 2.22057L12.513 5.94932L16.6289 6.54782C16.8701 6.58285 17.0967 6.68464 17.283 6.84171C17.4693 6.99877 17.608 7.20482 17.6834 7.43659C17.7588 7.66835 17.7678 7.91657 17.7094 8.15319C17.6511 8.38982 17.5277 8.6054 17.3533 8.77557L14.375 11.6778L15.078 15.7771C15.1193 16.0173 15.0926 16.2644 15.0008 16.4902C14.909 16.716 14.7559 16.9117 14.5587 17.055C14.3615 17.1984 14.1281 17.2836 13.8849 17.3012C13.6418 17.3188 13.3986 17.268 13.1828 17.1546L9.50035 15.2166L5.8191 17.1522V17.1534Z" fill="url(#paint0_linear_116_2687)"/>
<defs>
<linearGradient id="paint0_linear_116_2687" x1="3.63001" y1="19.3641" x2="18.7528" y2="3.59148" gradientUnits="userSpaceOnUse">
<stop stop-color="#3766D0"/>
<stop offset="1" stop-color="#69248F"/>
</linearGradient>
</defs>
</svg>
