<svg width="50" height="50" viewBox="0 0 50 50" fill="none" xmlns="http://www.w3.org/2000/svg">
<path fill-rule="evenodd" clip-rule="evenodd" d="M2.725 34.6648H8.74121V47.9005H2.725V34.6648ZM15.778 47.9005H21.7942V26.5427H15.778V47.9005ZM28.8311 47.9005H34.8472C34.8472 38.9431 34.8472 29.9856 34.8472 21.0279C32.8418 21.0279 30.8364 21.0279 28.8311 21.0279V47.9005ZM41.8842 47.9005H47.9002V14.2093H41.8842V47.9005ZM42.6525 3.44448C36.4338 9.0894 29.9007 13.6996 23.2979 17.4789C16.3493 21.4562 9.329 24.5113 2.51933 26.8827C2.19326 26.9962 2.02099 27.3531 2.13457 27.6791C2.24814 28.0051 2.60498 28.1774 2.93096 28.0638C9.8164 25.666 16.9091 22.5802 23.9204 18.5671C30.5895 14.7498 37.1917 10.0909 43.4814 4.38325L43.0215 7.54184C42.9728 7.88413 43.2109 8.20151 43.5532 8.25004C43.8955 8.29868 44.2129 8.06059 44.2614 7.71821L44.9752 2.81362C44.9807 2.77456 44.9827 2.73442 44.9806 2.6935C44.963 2.34829 44.6688 2.08286 44.3237 2.10043L39.3745 2.36899C39.0293 2.38657 38.7639 2.68071 38.7814 3.02583C38.799 3.37104 39.0932 3.63647 39.4383 3.61889L42.6525 3.44448Z" fill="url(#paint0_linear_116_2575)"/>
<defs>
<linearGradient id="paint0_linear_116_2575" x1="8.69082" y1="53.8663" x2="52.5362" y2="10.0209" gradientUnits="userSpaceOnUse">
<stop stop-color="#3766D0"/>
<stop offset="1" stop-color="#69248F"/>
</linearGradient>
</defs>
</svg>
