<svg width="19" height="19" viewBox="0 0 19 19" fill="none" xmlns="http://www.w3.org/2000/svg">
<path d="M11.875 15.4375C11.875 16.0674 11.6248 16.6715 11.1794 17.1169C10.734 17.5623 10.1299 17.8125 9.5 17.8125C8.87011 17.8125 8.26602 17.5623 7.82062 17.1169C7.37522 16.6715 7.125 16.0674 7.125 15.4375H11.875ZM15.4375 14.25H2.49375C2.30478 14.25 2.12356 14.1749 1.98994 14.0413C1.85632 13.9077 1.78125 13.7264 1.78125 13.5375C1.78125 13.3485 1.85632 13.1673 1.98994 13.0337C2.12356 12.9 2.30478 12.825 2.49375 12.825H3.5625V8.31247C3.5625 5.43872 5.605 3.03997 8.31844 2.49372C8.30186 2.32861 8.32008 2.16185 8.37191 2.0042C8.42375 1.84656 8.50805 1.70153 8.61938 1.57847C8.7307 1.4554 8.86659 1.35704 9.01827 1.28972C9.16995 1.2224 9.33405 1.18762 9.5 1.18762C9.66595 1.18762 9.83005 1.2224 9.98173 1.28972C10.1334 1.35704 10.2693 1.4554 10.3806 1.57847C10.492 1.70153 10.5763 1.84656 10.6281 2.0042C10.6799 2.16185 10.6981 2.32861 10.6816 2.49372C12.0236 2.76669 13.23 3.495 14.0967 4.55536C14.9634 5.61572 15.4371 6.94298 15.4375 8.31247V12.825H16.5062C16.6952 12.825 16.8764 12.9 17.0101 13.0337C17.1437 13.1673 17.2188 13.3485 17.2188 13.5375C17.2188 13.7264 17.1437 13.9077 17.0101 14.0413C16.8764 14.1749 16.6952 14.25 16.5062 14.25H15.4375Z" fill="url(#paint0_linear_116_2713)"/>
<defs>
<linearGradient id="paint0_linear_116_2713" x1="4.00288" y1="19.9779" x2="19.8743" y2="5.23993" gradientUnits="userSpaceOnUse">
<stop stop-color="#3766D0"/>
<stop offset="1" stop-color="#69248F"/>
</linearGradient>
</defs>
</svg>
