<svg width="50" height="50" viewBox="0 0 50 50" fill="none" xmlns="http://www.w3.org/2000/svg">
<path fill-rule="evenodd" clip-rule="evenodd" d="M24.3973 16.5819L10.2003 32.0432L3.95254 29.7692C3.51035 29.6082 3.05078 29.6893 2.69014 29.9919L0.78125 31.5937L10.2708 36.4618L13.4171 46.6524L15.3259 45.0506C15.6865 44.7479 15.8461 44.3095 15.7644 43.846L14.6098 37.2982L32.3016 26.002L37.2564 42.0513C37.3001 42.1923 37.4025 42.2934 37.5441 42.335C37.6855 42.3767 37.8264 42.3475 37.9394 42.2524L41.0404 39.6504C41.7135 39.0856 42.0114 38.2672 41.8589 37.402L40.4454 29.3864L42.4559 27.6994C43.0102 27.2344 43.0831 26.4005 42.6179 25.8461C42.1528 25.2918 41.3189 25.2188 40.7646 25.684L39.9178 26.3946L38.9542 20.9301C44.1123 15.9806 50.8479 7.69121 48.863 4.51553L48.684 4.2293L48.4332 4.00322C45.6503 1.49697 36.3174 6.69053 30.5476 10.9106L25.3332 9.01289L26.18 8.30234C26.7343 7.83721 26.8072 7.00342 26.342 6.44902C25.8769 5.89473 25.0431 5.82178 24.4888 6.28691L22.4785 7.97383L14.8299 5.19004C14.0045 4.88955 13.1466 5.04072 12.4735 5.60566L9.37256 8.20771C9.25947 8.30264 9.20596 8.43623 9.22256 8.58271C9.23897 8.72949 9.3207 8.84785 9.45205 8.91523L24.3973 16.5819Z" fill="url(#paint0_linear_116_2565)"/>
<defs>
<linearGradient id="paint0_linear_116_2565" x1="7.75194" y1="52.293" x2="48.9491" y2="6.21276" gradientUnits="userSpaceOnUse">
<stop stop-color="#3766D0"/>
<stop offset="1" stop-color="#69248F"/>
</linearGradient>
</defs>
</svg>
