<svg width="19" height="19" viewBox="0 0 19 19" fill="none" xmlns="http://www.w3.org/2000/svg">
<path d="M12.7656 9.5C12.2145 9.5 11.6859 9.71894 11.2962 10.1087C10.9064 10.4984 10.6875 11.027 10.6875 11.5781C10.6875 12.1293 10.9064 12.6579 11.2962 13.0476C11.6859 13.4373 12.2145 13.6562 12.7656 13.6562H16.625V16.625H2.375V6.53125H16.625V9.5H12.7656ZM13.3594 12.4688H12.7656C12.5294 12.4688 12.3029 12.3749 12.1359 12.2079C11.9688 12.0409 11.875 11.8143 11.875 11.5781C11.875 11.3419 11.9688 11.1154 12.1359 10.9484C12.3029 10.7813 12.5294 10.6875 12.7656 10.6875H13.3594C13.5956 10.6875 13.8221 10.7813 13.9891 10.9484C14.1562 11.1154 14.25 11.3419 14.25 11.5781C14.25 11.8143 14.1562 12.0409 13.9891 12.2079C13.8221 12.3749 13.5956 12.4688 13.3594 12.4688ZM11.875 2.375L14.25 5.34375H7.125L11.875 2.375Z" fill="#8001BD"/>
</svg>
