<svg width="174" height="175" viewBox="0 0 174 175" fill="none" xmlns="http://www.w3.org/2000/svg">
<g clip-path="url(#clip0_116_2546)">
<path fill-rule="evenodd" clip-rule="evenodd" d="M101.227 156.699C101.761 155.303 103.325 154.604 104.721 155.138C106.117 155.671 106.816 157.236 106.282 158.632L100.849 172.748C100.437 173.825 99.4103 174.488 98.3211 174.488V174.5H81.4761C80.2248 174.5 79.1713 173.654 78.8545 172.504L74.0502 160.023C69.7205 159.08 65.5269 157.757 61.5058 156.09C57.4294 154.401 53.5273 152.351 49.839 149.98L37.3525 155.526C36.301 155.991 35.1126 155.731 34.3452 154.965L34.3364 154.974L22.4245 143.062C21.5389 142.177 21.3924 140.832 21.9841 139.794L27.4158 127.564C25.0454 123.876 22.9958 119.974 21.3061 115.898C19.6385 111.875 18.3148 107.679 17.3717 103.347L4.65033 98.4501C3.57269 98.0382 2.91033 97.0115 2.91033 95.9223H2.89844V79.077C2.89844 77.8257 3.74397 76.7722 4.89468 76.4554L17.3744 71.6521C18.3168 67.3211 19.6402 63.1261 21.3074 59.1044C22.9971 55.0279 25.0471 51.1265 27.4178 47.4392L21.8726 34.9537C21.4077 33.9022 21.667 32.7138 22.4337 31.9464L22.4248 31.9376L34.336 20.0257C35.2217 19.1401 36.5661 18.9936 37.604 19.5853L49.8387 25.0197C53.527 22.649 57.4287 20.599 61.5055 18.9093C65.5262 17.2427 69.7202 15.9197 74.0498 14.9773L78.948 2.25223C79.3599 1.17459 80.3865 0.512234 81.4757 0.511895V0.5H98.3208C99.5721 0.5 100.626 1.34553 100.942 2.49624L106.283 16.3724C106.817 17.7681 106.118 19.3328 104.722 19.8663C103.326 20.3999 101.761 19.7012 101.228 18.3051L96.4683 5.9375H83.3293L78.652 18.0883C78.3787 19.0368 77.5968 19.8021 76.5613 20.0043C72.0573 20.8886 67.7172 22.2102 63.5874 23.922C59.3529 25.6773 55.3418 27.835 51.6028 30.3454L51.6004 30.342C50.8558 30.8395 49.8805 30.9575 49.001 30.5684L36.8709 25.1805L27.5796 34.4721L32.9002 46.4513C33.3376 47.2999 33.3128 48.3541 32.7439 49.203C30.2334 52.9413 28.0758 56.9518 26.3208 61.1859C24.6083 65.3167 23.2867 69.6579 22.4021 74.1632L22.3926 74.1615C22.2189 75.0464 21.6072 75.8247 20.7029 76.1706L8.33662 80.9305V94.0695L20.4837 98.7454C21.4322 99.0187 22.1975 99.8006 22.3994 100.836C23.2846 105.342 24.607 109.684 26.3198 113.816C28.0747 118.051 30.2321 122.062 32.7422 125.8L32.7388 125.802C33.2363 126.547 33.3542 127.522 32.9651 128.402L27.5799 140.528L36.8716 149.819L48.8521 144.498C49.7007 144.061 50.7546 144.086 51.6038 144.655C55.3428 147.165 59.354 149.322 63.5884 151.078C67.7182 152.79 72.0583 154.111 76.5623 154.996L76.5606 155.005C77.4455 155.179 78.2238 155.791 78.5697 156.695L83.3293 169.063H96.4683L101.227 156.699ZM136.74 134.452C136.74 131.465 136.74 128.477 136.74 125.49C136.74 124.794 136.474 124.099 135.944 123.568L122.51 110.134C122.017 109.634 121.332 109.323 120.574 109.323H106.427V114.761H119.448L131.303 126.616V134.452C131.056 134.558 130.814 134.68 130.576 134.817C127.279 136.721 126.15 140.935 128.053 144.232C129.956 147.529 134.171 148.658 137.468 146.755C140.765 144.851 141.894 140.637 139.991 137.34C139.217 135.999 138.061 135.018 136.74 134.452ZM139.398 104.48C137.206 104.48 135.014 104.48 132.822 104.48L126.127 97.785C125.634 97.2848 124.948 96.9745 124.19 96.9745H105.826C106.217 98.3889 106.427 99.8788 106.427 101.418V102.412H123.064L129.774 109.121C130.304 109.652 131 109.917 131.696 109.918H139.398C140.452 112.372 142.891 114.091 145.732 114.091C149.539 114.091 152.625 111.006 152.625 107.199C152.625 103.392 149.539 100.307 145.732 100.307C142.892 100.307 140.453 102.026 139.398 104.48ZM157.875 84.6259C139.328 84.6259 120.78 84.6259 102.233 84.6259L101.95 90.0634H157.875C158.93 92.5178 161.369 94.2371 164.21 94.2371C168.016 94.2371 171.102 91.1516 171.102 87.3447C171.102 83.5381 168.016 80.4523 164.21 80.4523C161.369 80.4523 158.93 82.1713 157.875 84.6259ZM139.398 63.5101C137.094 63.5101 134.79 63.5104 132.486 63.5104C131.79 63.5104 131.095 63.7759 130.564 64.3067L122.593 72.2774H106.427V73.5824C106.427 75.009 106.247 76.3936 105.909 77.7149H123.719C124.477 77.7149 125.162 77.4046 125.655 76.9044L133.612 68.9476H139.398C140.453 71.4019 142.892 73.1212 145.733 73.1212C149.54 73.1212 152.625 70.0358 152.625 66.2288C152.625 62.4223 149.54 59.3368 145.733 59.3368C142.892 59.3365 140.453 61.0554 139.398 63.5101ZM136.74 40.2373C138.061 39.6718 139.217 38.6899 139.991 37.3499C141.894 34.0535 140.765 29.8384 137.468 27.9352C134.172 26.0318 129.956 27.1614 128.053 30.4579C126.15 33.7547 127.279 37.9695 130.576 39.8729C130.814 40.0102 131.056 40.1319 131.303 40.2379V48.0741L119.448 59.9292H106.427V65.3667H120.574C121.332 65.3667 122.017 65.0564 122.51 64.5561L135.944 51.1221C136.474 50.5913 136.74 49.8956 136.74 49.2C136.74 46.212 136.74 43.2245 136.74 40.2373ZM79.1339 35.9467C79.1247 35.978 79.1145 36.0093 79.104 36.0402C78.7713 37.1005 78.5918 38.2284 78.5918 39.3982C78.5918 40.8024 78.843 42.1343 79.3018 43.3516C79.7792 44.6182 80.4875 45.7818 81.3765 46.7925C82.3678 47.9187 82.2584 49.6353 81.1322 50.6263C80.0059 51.6176 78.2894 51.5082 77.2984 50.3819C75.991 48.8961 74.9426 47.1653 74.2252 45.2629C73.5329 43.4267 73.154 41.4491 73.154 39.3978C73.154 39.1525 73.1598 38.9085 73.1703 38.6658C72.0627 39.1124 71.0422 39.7316 70.1416 40.4894C68.3228 42.0201 66.993 44.1223 66.4305 46.5162C66.0903 47.9765 64.6307 48.8846 63.1701 48.5447C63.1116 48.5311 63.0542 48.5155 62.9978 48.4985C62.6389 48.417 62.2501 48.35 61.8314 48.2997C61.4025 48.248 60.955 48.2212 60.4894 48.2212C57.4634 48.2212 54.7022 49.4365 52.6801 51.4066C50.6669 53.3675 49.3812 56.0689 49.2868 59.0578C49.3381 60.6534 49.733 62.1735 50.3998 63.5475C51.0968 64.984 52.098 66.2543 53.3187 67.2762C54.4684 68.238 54.6203 69.9498 53.6585 71.0995C52.6968 72.2492 50.985 72.4011 49.8353 71.4393C48.0361 69.9331 46.5544 68.048 45.5145 65.9053C45.0353 64.9181 44.6513 63.8741 44.3743 62.7859C43.0561 63.5128 41.8958 64.4984 40.964 65.6735C39.4524 67.5794 38.547 69.9899 38.547 72.6064V72.6553C38.547 75.9929 39.9095 79.0246 42.1072 81.2221C44.3047 83.4195 47.3361 84.7823 50.674 84.7823H77.4948C76.5589 83.7576 75.7504 82.6171 75.0952 81.3852C74.3914 80.0598 74.8954 78.4143 76.2211 77.7108C77.5465 77.007 79.1917 77.511 79.8955 78.8367C80.8569 80.6443 82.2887 82.1532 84.0219 83.1952C85.6986 84.2028 87.6718 84.7826 89.7904 84.7826C92.8829 84.7826 95.6829 83.5293 97.7094 81.5028C99.7359 79.4763 100.989 76.6763 100.989 73.5837V39.3982C100.989 36.3212 99.7284 33.5219 97.6975 31.491C95.6666 29.4601 92.8673 28.1993 89.7904 28.1993C86.6978 28.1993 83.8978 29.4526 81.8713 31.4791C80.6343 32.7165 79.6854 34.2421 79.1339 35.9467ZM100.99 101.418C100.99 98.325 99.7366 95.5251 97.7101 93.4986C95.6836 91.4721 92.8836 90.2188 89.791 90.2188C87.6725 90.2188 85.6993 90.7985 84.0225 91.8062C82.2893 92.8478 80.8576 94.357 79.8962 96.1643C79.1923 97.49 77.5472 97.994 76.2218 97.2902C74.8964 96.5864 74.392 94.9412 75.0959 93.6158C75.7511 92.3839 76.5592 91.2434 77.4955 90.2188H50.675C47.3371 90.2188 44.3057 91.5812 42.1082 93.779C39.9108 95.9764 38.548 99.0081 38.548 102.346V102.395C38.548 105.011 39.4534 107.422 40.965 109.327C41.8972 110.502 43.0571 111.488 44.3753 112.215C44.6523 111.127 45.0363 110.083 45.5155 109.095C46.5554 106.953 48.0372 105.068 49.8363 103.561C50.986 102.599 52.6974 102.751 53.6595 103.901C54.6213 105.051 54.4694 106.762 53.3197 107.724C52.099 108.746 51.0981 110.016 50.4008 111.453C49.734 112.827 49.3391 114.347 49.2878 115.943C49.3819 118.931 50.6679 121.633 52.6811 123.594C54.7035 125.564 57.4644 126.779 60.4904 126.779C60.9556 126.779 61.4036 126.752 61.8324 126.701C62.2511 126.65 62.6399 126.583 62.9988 126.502C63.0552 126.485 63.1126 126.469 63.1711 126.456C64.6314 126.115 66.0914 127.023 66.4315 128.484C66.994 130.878 68.3238 132.98 70.1426 134.511C71.0429 135.269 72.0638 135.888 73.1713 136.335C73.1608 136.092 73.155 135.848 73.155 135.603C73.155 133.551 73.5339 131.574 74.2262 129.737C74.9436 127.835 75.992 126.105 77.2994 124.618C78.2907 123.492 80.0073 123.383 81.1332 124.374C82.2594 125.365 82.3685 127.082 81.3775 128.208C80.4885 129.219 79.7803 130.382 79.3028 131.649C78.844 132.866 78.5929 134.198 78.5929 135.602C78.5929 136.772 78.7723 137.9 79.105 138.96C79.1155 138.991 79.1257 139.023 79.1352 139.055C79.6868 140.759 80.6357 142.284 81.8727 143.521C83.8992 145.548 86.6991 146.801 89.7917 146.801C92.8687 146.801 95.668 145.54 97.6989 143.509C99.7298 141.478 100.991 138.679 100.991 135.602V101.418H100.99Z" fill="url(#paint0_linear_116_2546)"/>
</g>
<defs>
<linearGradient id="paint0_linear_116_2546" x1="2.53385" y1="7.25728" x2="148.238" y2="159.296" gradientUnits="userSpaceOnUse">
<stop stop-color="white"/>
<stop offset="1" stop-color="#8EA7FF"/>
</linearGradient>
<clipPath id="clip0_116_2546">
<rect width="174" height="174" fill="white" transform="translate(0 0.5)"/>
</clipPath>
</defs>
</svg>
