<svg width="50" height="50" viewBox="0 0 50 50" fill="none" xmlns="http://www.w3.org/2000/svg">
<path fill-rule="evenodd" clip-rule="evenodd" d="M2.5958 7.18056H47.4034C48.3735 7.18056 49.1672 7.97422 49.1672 8.94424V17.1688C48.6206 16.7649 47.9461 16.5254 47.2183 16.5254H36.7654C34.9551 16.5254 33.474 18.0064 33.474 19.8168V31.1361H0.832031V8.94424C0.832031 7.97422 1.62568 7.18056 2.5958 7.18056ZM36.7654 17.868C35.6936 17.868 34.8167 18.7448 34.8167 19.8167V21.1065H49.1672V19.8167C49.1672 18.7448 48.2903 17.868 47.2185 17.868H36.7654ZM40.2824 20.4943H43.7013C44.072 20.4943 44.3727 20.1937 44.3727 19.8229C44.3727 19.4522 44.072 19.1516 43.7013 19.1516H40.2824C39.9117 19.1516 39.611 19.4522 39.611 19.8229C39.611 20.1937 39.9117 20.4943 40.2824 20.4943ZM41.0026 40.0727C40.6319 40.0727 40.3313 39.772 40.3313 39.4013C40.3313 39.0306 40.6319 38.7299 41.0026 38.7299H42.9811C43.3518 38.7299 43.6524 39.0306 43.6524 39.4013C43.6524 39.772 43.3518 40.0727 42.9811 40.0727H41.0026ZM49.1672 22.4493H34.8167V36.4711H49.1672V22.4493ZM49.1672 37.8139H34.8167V40.1995C34.8167 41.2714 35.6936 42.1482 36.7654 42.1482H47.2184C48.2902 42.1482 49.1671 41.2714 49.1671 40.1995L49.1672 37.8139ZM18.743 35.5865C18.3723 35.5865 18.0716 35.2858 18.0716 34.9151C18.0716 34.5444 18.3723 34.2438 18.743 34.2438H31.2563C31.6271 34.2438 31.9277 34.5444 31.9277 34.9151C31.9277 35.2858 31.6271 35.5865 31.2563 35.5865H18.743ZM33.474 38.1288V32.4788H0.832031V36.3651C0.832031 37.3352 1.62568 38.1288 2.5958 38.1288H33.474ZM22.3478 41.4767V39.4714H23.6904V41.4767H26.3086V39.4714H27.6514V41.4767H32.4664C32.8371 41.4767 33.1378 41.7773 33.1378 42.148C33.1378 42.5188 32.8371 42.8194 32.4664 42.8194H17.5328C17.1621 42.8194 16.8614 42.5188 16.8614 42.148C16.8614 41.7773 17.1621 41.4767 17.5328 41.4767H22.3478Z" fill="#F8F8FA"/>
</svg>
