<svg width="36" height="40" viewBox="0 0 36 40" fill="none" xmlns="http://www.w3.org/2000/svg">
<path d="M13.8935 20.5724L0 11.7542V4.96303C0 4.96303 6.86846 0 17.1517 0V12.8608L13.8935 10.6935V4.04258C7.72559 4.04258 3.25942 7.44136 3.25942 7.44136V9.55762L17.1517 18.3746V39.9949C8.03888 35.6871 0 30.7534 0 22.319V15.7241L3.23311 17.8786L3.25942 22.1596C3.25942 28.5283 9.02022 31.7771 13.4433 34.2715C13.595 34.3571 13.7452 34.4418 13.8935 34.5258V20.5724Z" fill="white"/>
<path d="M35.9551 4.96303V10.0242L32.6944 12.1966V7.44136C32.6944 7.44136 28.0603 4.04258 22.064 4.04258V34.4199C26.9776 31.8218 32.6944 27.6288 32.6944 22.7486V20.181L27.8373 23.423L26.0553 20.6553L35.9551 14.0719V22.8544C35.9551 29.5385 29.1568 35.2142 18.8034 40V0C29.1568 0 35.9551 4.96303 35.9551 4.96303Z" fill="white"/>
</svg>
