<svg width="240" height="40" viewBox="0 0 240 40" fill="none" xmlns="http://www.w3.org/2000/svg">
<path d="M13.8935 20.5724L0 11.7542V4.96303C0 4.96303 6.86846 0 17.1517 0V12.8608L13.8935 10.6935V4.04258C7.72559 4.04258 3.25942 7.44136 3.25942 7.44136V9.55762L17.1517 18.3746V39.9949C8.03888 35.6871 0 30.7534 0 22.319V15.7241L3.23311 17.8786L3.25942 22.1596C3.25942 28.5283 9.02022 31.7771 13.4433 34.2715C13.595 34.3571 13.7452 34.4418 13.8935 34.5258V20.5724Z" fill="#0E1926"/>
<path d="M35.9551 4.96303V10.0242L32.6944 12.1966V7.44136C32.6944 7.44136 28.0603 4.04258 22.064 4.04258V34.4199C26.9776 31.8218 32.6944 27.6288 32.6944 22.7486V20.181L27.8373 23.423L26.0553 20.6553L35.9551 14.0719V22.8544C35.9551 29.5385 29.1568 35.2142 18.8034 40V0C29.1568 0 35.9551 4.96303 35.9551 4.96303Z" fill="#0E1926"/>
<path d="M148.378 14.6537H151.848V22.6225C150.832 23.4412 149.647 24.0696 148.293 24.5076C146.939 24.9455 145.547 25.1645 144.118 25.1645C142.106 25.1645 140.291 24.7265 138.674 23.8506C137.057 22.9557 135.787 21.7275 134.866 20.1661C133.944 18.6047 133.483 16.8434 133.483 14.8822C133.483 12.9209 133.944 11.1596 134.866 9.5982C135.787 8.03681 137.057 6.81817 138.674 5.94227C140.31 5.04732 142.144 4.59985 144.175 4.59985C145.83 4.59985 147.334 4.87595 148.688 5.42815C150.042 5.98035 151.18 6.78961 152.101 7.85592L149.788 10.1409C148.284 8.61757 146.469 7.85592 144.344 7.85592C142.952 7.85592 141.711 8.15106 140.62 8.74134C139.548 9.33162 138.702 10.1599 138.081 11.2262C137.48 12.2925 137.179 13.5112 137.179 14.8822C137.179 16.2151 137.48 17.4147 138.081 18.481C138.702 19.5473 139.548 20.3851 140.62 20.9944C141.711 21.6038 142.943 21.9084 144.316 21.9084C145.858 21.9084 147.212 21.5657 148.378 20.8802V14.6537Z" fill="#0E1926"/>
<path d="M165.175 25.1645C162.448 25.1645 160.323 24.3933 158.8 22.851C157.277 21.2896 156.515 19.0617 156.515 16.1675V4.88547H160.182V16.0246C160.182 19.9472 161.856 21.9084 165.203 21.9084C168.532 21.9084 170.196 19.9472 170.196 16.0246V4.88547H173.807V16.1675C173.807 19.0617 173.046 21.2896 171.522 22.851C170.018 24.3933 167.902 25.1645 165.175 25.1645Z" fill="#0E1926"/>
<path d="M191.337 20.2518H181.464L179.517 24.8789H175.737L184.623 4.88547H188.234L197.148 24.8789H193.311L191.337 20.2518ZM190.124 17.3385L186.4 8.59853L182.705 17.3385H190.124Z" fill="#0E1926"/>
<path d="M212.579 24.8789L208.545 19.0237C208.376 19.0427 208.122 19.0522 207.783 19.0522H203.326V24.8789H199.659V4.88547H207.783C209.495 4.88547 210.98 5.17109 212.24 5.74233C213.519 6.31357 214.497 7.13235 215.174 8.19866C215.851 9.26498 216.19 10.5312 216.19 11.9974C216.19 13.5017 215.823 14.7965 215.089 15.8818C214.375 16.9672 213.341 17.7764 211.986 18.3096L216.528 24.8789H212.579ZM212.494 11.9974C212.494 10.7216 212.081 9.74101 211.253 9.05552C210.426 8.37004 209.213 8.02729 207.614 8.02729H203.326V15.9961H207.614C209.213 15.9961 210.426 15.6533 211.253 14.9679C212.081 14.2633 212.494 13.2732 212.494 11.9974Z" fill="#0E1926"/>
<path d="M220.293 4.88547H228.925C231.031 4.88547 232.902 5.30438 234.538 6.1422C236.174 6.96098 237.444 8.13202 238.346 9.65532C239.249 11.1596 239.7 12.9019 239.7 14.8822C239.7 16.8625 239.249 18.6143 238.346 20.1376C237.444 21.6418 236.174 22.8129 234.538 23.6507C232.902 24.4695 231.031 24.8789 228.925 24.8789H220.293V4.88547ZM228.755 21.737C230.203 21.737 231.473 21.4609 232.563 20.9087C233.673 20.3375 234.519 19.5378 235.102 18.5095C235.704 17.4623 236.005 16.2531 236.005 14.8822C236.005 13.5112 235.704 12.3116 235.102 11.2834C234.519 10.2361 233.673 9.43635 232.563 8.88415C231.473 8.31291 230.203 8.02729 228.755 8.02729H223.96V21.737H228.755Z" fill="#0E1926"/>
<path d="M55.2359 25.059C53.7126 25.059 52.2363 24.84 50.8071 24.4021C49.3966 23.9641 48.2777 23.3834 47.4502 22.6598L48.7196 19.775C49.5283 20.4225 50.5156 20.9556 51.6816 21.3745C52.8663 21.7744 54.0511 21.9743 55.2359 21.9743C56.7028 21.9743 57.7935 21.7363 58.5082 21.2603C59.2416 20.7842 59.6083 20.1559 59.6083 19.3752C59.6083 18.8039 59.4015 18.3374 58.9877 17.9756C58.5928 17.5948 58.085 17.2997 57.4644 17.0902C56.8438 16.8808 55.9976 16.6427 54.9256 16.3762C53.4211 16.0144 52.1987 15.6526 51.2584 15.2908C50.3369 14.929 49.5377 14.3673 48.8607 13.6057C48.2024 12.825 47.8733 11.7777 47.8733 10.4638C47.8733 9.35944 48.1648 8.35977 48.7478 7.46483C49.3496 6.55085 50.2429 5.82728 51.4277 5.29412C52.6313 4.76096 54.0981 4.49438 55.8283 4.49438C57.0319 4.49438 58.2167 4.64672 59.3826 4.95138C60.5486 5.25604 61.5547 5.69399 62.401 6.26523L61.2444 9.14999C60.3794 8.63587 59.4767 8.24553 58.5364 7.97895C57.5961 7.71237 56.684 7.57908 55.8001 7.57908C54.352 7.57908 53.2707 7.82662 52.556 8.32169C51.8602 8.81677 51.5123 9.47369 51.5123 10.2925C51.5123 10.8637 51.7098 11.3302 52.1047 11.692C52.5184 12.0538 53.0356 12.3394 53.6562 12.5489C54.2768 12.7583 55.1231 12.9963 56.195 13.2629C57.6619 13.6057 58.8655 13.9674 59.8058 14.3483C60.7461 14.7101 61.5453 15.2718 62.2036 16.0334C62.8806 16.7951 63.2191 17.8233 63.2191 19.1181C63.2191 20.2225 62.9182 21.2222 62.3164 22.1171C61.7334 23.0121 60.8401 23.7261 59.6365 24.2593C58.4329 24.7924 56.9661 25.059 55.2359 25.059Z" fill="#0E1926"/>
<path d="M74.9796 4.78C76.691 4.78 78.1767 5.06562 79.4367 5.63686C80.7155 6.2081 81.6934 7.02688 82.3704 8.09319C83.0474 9.15951 83.3859 10.4258 83.3859 11.8919C83.3859 13.3391 83.0474 14.6053 82.3704 15.6907C81.6934 16.757 80.7155 17.5758 79.4367 18.147C78.1767 18.7183 76.691 19.0039 74.9796 19.0039H70.5226V24.7734H66.8554V4.78H74.9796ZM74.8104 15.8621C76.4089 15.8621 77.6219 15.5193 78.4494 14.8338C79.2768 14.1483 79.6906 13.1677 79.6906 11.8919C79.6906 10.6162 79.2768 9.63554 78.4494 8.95005C77.6219 8.26457 76.4089 7.92182 74.8104 7.92182H70.5226V15.8621H74.8104Z" fill="#0E1926"/>
<path d="M98.8633 20.1463H88.9901L87.0437 24.7734H83.2636L92.1495 4.78H95.7603L104.674 24.7734H100.838L98.8633 20.1463ZM97.6503 17.233L93.9267 8.49306L90.2313 17.233H97.6503Z" fill="#0E1926"/>
<path d="M125.324 24.7734L125.296 11.5206L118.808 22.4884H117.172L110.684 11.692V24.7734H107.186V4.78H110.204L118.046 18.0328L125.747 4.78H128.766L128.794 24.7734H125.324Z" fill="#0E1926"/>
<path d="M51.3973 37.8065C50.9239 37.8065 50.4864 37.7286 50.0849 37.5728C49.6835 37.411 49.3359 37.1863 49.0423 36.8986C48.7486 36.611 48.5179 36.2724 48.3501 35.8829C48.1883 35.4934 48.1074 35.0679 48.1074 34.6065C48.1074 34.1451 48.1883 33.7196 48.3501 33.3301C48.5179 32.9406 48.7486 32.602 49.0423 32.3144C49.3419 32.0267 49.6924 31.805 50.0939 31.6492C50.4954 31.4874 50.9329 31.4065 51.4063 31.4065C51.8617 31.4065 52.2902 31.4844 52.6917 31.6402C53.0932 31.79 53.4318 32.0177 53.7074 32.3233L53.2849 32.7458C53.0273 32.4821 52.7426 32.2934 52.431 32.1795C52.1194 32.0597 51.7838 31.9998 51.4243 31.9998C51.0467 31.9998 50.6962 32.0657 50.3726 32.1975C50.049 32.3233 49.7673 32.5061 49.5276 32.7458C49.2879 32.9795 49.0992 33.2552 48.9614 33.5728C48.8295 33.8844 48.7636 34.229 48.7636 34.6065C48.7636 34.984 48.8295 35.3316 48.9614 35.6492C49.0992 35.9608 49.2879 36.2365 49.5276 36.4762C49.7673 36.7099 50.049 36.8926 50.3726 37.0245C50.6962 37.1503 51.0467 37.2132 51.4243 37.2132C51.7838 37.2132 52.1194 37.1533 52.431 37.0335C52.7426 36.9136 53.0273 36.7219 53.2849 36.4582L53.7074 36.8807C53.4318 37.1863 53.0932 37.417 52.6917 37.5728C52.2902 37.7286 51.8587 37.8065 51.3973 37.8065Z" fill="#0E1926"/>
<path d="M55.7546 37.7526V31.4604H56.4198V37.1773H59.9434V37.7526H55.7546Z" fill="#0E1926"/>
<path d="M62.2703 34.2739H65.5961V34.8402H62.2703V34.2739ZM62.3422 37.1773H66.1265V37.7526H61.677V31.4604H65.9916V32.0357H62.3422V37.1773Z" fill="#0E1926"/>
<path d="M67.3125 37.7526L70.1889 31.4604H70.8451L73.7215 37.7526H73.0203L70.3776 31.8469H70.6473L68.0046 37.7526H67.3125ZM68.4451 36.0717L68.6428 35.5323H72.3012L72.499 36.0717H68.4451Z" fill="#0E1926"/>
<path d="M75.3916 37.7526V31.4604H75.9399L80.2814 36.9256H79.9938V31.4604H80.65V37.7526H80.1017L75.7691 32.2874H76.0567V37.7526H75.3916Z" fill="#0E1926"/>
<path d="M88.8495 37.8065C88.0465 37.8065 87.4143 37.5758 86.9529 37.1144C86.4914 36.6529 86.2607 35.9698 86.2607 35.0649V31.4604H86.9259V35.038C86.9259 35.781 87.0937 36.3293 87.4293 36.6829C87.7648 37.0365 88.2382 37.2132 88.8495 37.2132C89.4667 37.2132 89.9431 37.0365 90.2787 36.6829C90.6143 36.3293 90.7821 35.781 90.7821 35.038V31.4604H91.4293V35.0649C91.4293 35.9698 91.1986 36.6529 90.7371 37.1144C90.2817 37.5758 89.6525 37.8065 88.8495 37.8065Z" fill="#0E1926"/>
<path d="M94.0629 37.7526V31.4604H96.418C96.9513 31.4604 97.4097 31.5473 97.7932 31.7211C98.1768 31.8889 98.4704 32.1346 98.6741 32.4582C98.8839 32.7758 98.9887 33.1623 98.9887 33.6177C98.9887 34.0612 98.8839 34.4447 98.6741 34.7683C98.4704 35.0859 98.1768 35.3316 97.7932 35.5054C97.4097 35.6792 96.9513 35.766 96.418 35.766H94.4314L94.7281 35.4514V37.7526H94.0629ZM94.7281 35.5054L94.4314 35.1818H96.4C97.0292 35.1818 97.5056 35.0469 97.8292 34.7773C98.1588 34.5016 98.3236 34.1151 98.3236 33.6177C98.3236 33.1144 98.1588 32.7248 97.8292 32.4492C97.5056 32.1735 97.0292 32.0357 96.4 32.0357H94.4314L94.7281 31.7211V35.5054Z" fill="#0E1926"/>
<path d="M103.119 37.7526L105.995 31.4604H106.652L109.528 37.7526H108.827L106.184 31.8469H106.454L103.811 37.7526H103.119ZM104.252 36.0717L104.449 35.5323H108.108L108.306 36.0717H104.252Z" fill="#0E1926"/>
<path d="M111.198 37.7526V31.4604H111.746L116.088 36.9256H115.8V31.4604H116.457V37.7526H115.908L111.576 32.2874H111.863V37.7526H111.198Z" fill="#0E1926"/>
<path d="M119.139 37.7526V31.4604H121.701C122.372 31.4604 122.96 31.5953 123.463 31.8649C123.972 32.1286 124.368 32.4971 124.65 32.9705C124.931 33.4439 125.072 33.9893 125.072 34.6065C125.072 35.2237 124.931 35.769 124.65 36.2424C124.368 36.7159 123.972 37.0874 123.463 37.3571C122.96 37.6207 122.372 37.7526 121.701 37.7526H119.139ZM119.805 37.1773H121.665C122.223 37.1773 122.705 37.0694 123.112 36.8537C123.526 36.632 123.847 36.3293 124.074 35.9458C124.302 35.5563 124.416 35.1099 124.416 34.6065C124.416 34.0971 124.302 33.6507 124.074 33.2672C123.847 32.8836 123.526 32.584 123.112 32.3683C122.705 32.1466 122.223 32.0357 121.665 32.0357H119.805V37.1773Z" fill="#0E1926"/>
<path d="M130.177 37.7526V31.4604H132.532C133.065 31.4604 133.523 31.5473 133.907 31.7211C134.291 31.8889 134.584 32.1346 134.788 32.4582C134.998 32.7758 135.103 33.1623 135.103 33.6177C135.103 34.0612 134.998 34.4447 134.788 34.7683C134.584 35.0859 134.291 35.3316 133.907 35.5054C133.523 35.6792 133.065 35.766 132.532 35.766H130.545L130.842 35.4514V37.7526H130.177ZM130.842 35.5054L130.545 35.1818H132.514C133.143 35.1818 133.619 35.0469 133.943 34.7773C134.273 34.5016 134.437 34.1151 134.437 33.6177C134.437 33.1144 134.273 32.7248 133.943 32.4492C133.619 32.1735 133.143 32.0357 132.514 32.0357H130.545L130.842 31.7211V35.5054Z" fill="#0E1926"/>
<path d="M137.17 37.7526V31.4604H139.525C140.058 31.4604 140.517 31.5473 140.9 31.7211C141.284 31.8889 141.577 32.1346 141.781 32.4582C141.991 32.7758 142.096 33.1623 142.096 33.6177C142.096 34.0612 141.991 34.4447 141.781 34.7683C141.577 35.0859 141.284 35.3316 140.9 35.5054C140.517 35.6732 140.058 35.7571 139.525 35.7571H137.539L137.835 35.4514V37.7526H137.17ZM141.467 37.7526L139.849 35.4694H140.568L142.195 37.7526H141.467ZM137.835 35.5054L137.539 35.1908H139.507C140.136 35.1908 140.613 35.0529 140.936 34.7773C141.266 34.5016 141.431 34.1151 141.431 33.6177C141.431 33.1144 141.266 32.7248 140.936 32.4492C140.613 32.1735 140.136 32.0357 139.507 32.0357H137.539L137.835 31.7211V35.5054Z" fill="#0E1926"/>
<path d="M147.046 37.8065C146.572 37.8065 146.132 37.7286 145.724 37.5728C145.323 37.411 144.972 37.1863 144.673 36.8986C144.379 36.605 144.148 36.2664 143.98 35.8829C143.819 35.4934 143.738 35.0679 143.738 34.6065C143.738 34.1451 143.819 33.7226 143.98 33.3391C144.148 32.9496 144.379 32.611 144.673 32.3233C144.972 32.0297 145.323 31.805 145.724 31.6492C146.126 31.4874 146.566 31.4065 147.046 31.4065C147.519 31.4065 147.956 31.4874 148.358 31.6492C148.759 31.805 149.107 32.0267 149.401 32.3144C149.7 32.602 149.931 32.9406 150.093 33.3301C150.261 33.7196 150.344 34.1451 150.344 34.6065C150.344 35.0679 150.261 35.4934 150.093 35.8829C149.931 36.2724 149.7 36.611 149.401 36.8986C149.107 37.1863 148.759 37.411 148.358 37.5728C147.956 37.7286 147.519 37.8065 147.046 37.8065ZM147.046 37.2132C147.423 37.2132 147.771 37.1503 148.088 37.0245C148.412 36.8926 148.69 36.7099 148.924 36.4762C149.164 36.2365 149.35 35.9608 149.482 35.6492C149.613 35.3316 149.679 34.984 149.679 34.6065C149.679 34.229 149.613 33.8844 149.482 33.5728C149.35 33.2552 149.164 32.9795 148.924 32.7458C148.69 32.5061 148.412 32.3233 148.088 32.1975C147.771 32.0657 147.423 31.9998 147.046 31.9998C146.668 31.9998 146.317 32.0657 145.994 32.1975C145.67 32.3233 145.389 32.5061 145.149 32.7458C144.915 32.9795 144.729 33.2552 144.592 33.5728C144.46 33.8844 144.394 34.229 144.394 34.6065C144.394 34.978 144.46 35.3226 144.592 35.6402C144.729 35.9578 144.915 36.2365 145.149 36.4762C145.389 36.7099 145.67 36.8926 145.994 37.0245C146.317 37.1503 146.668 37.2132 147.046 37.2132Z" fill="#0E1926"/>
<path d="M153.599 37.7526V32.0357H151.388V31.4604H156.476V32.0357H154.264V37.7526H153.599Z" fill="#0E1926"/>
<path d="M158.761 34.2739H162.087V34.8402H158.761V34.2739ZM158.833 37.1773H162.617V37.7526H158.168V31.4604H162.482V32.0357H158.833V37.1773Z" fill="#0E1926"/>
<path d="M167.525 37.8065C167.051 37.8065 166.614 37.7286 166.212 37.5728C165.811 37.411 165.463 37.1863 165.17 36.8986C164.876 36.611 164.645 36.2724 164.478 35.8829C164.316 35.4934 164.235 35.0679 164.235 34.6065C164.235 34.1451 164.316 33.7196 164.478 33.3301C164.645 32.9406 164.876 32.602 165.17 32.3144C165.469 32.0267 165.82 31.805 166.221 31.6492C166.623 31.4874 167.06 31.4065 167.534 31.4065C167.989 31.4065 168.418 31.4844 168.819 31.6402C169.221 31.79 169.559 32.0177 169.835 32.3233L169.412 32.7458C169.155 32.4821 168.87 32.2934 168.558 32.1795C168.247 32.0597 167.911 31.9998 167.552 31.9998C167.174 31.9998 166.824 32.0657 166.5 32.1975C166.176 32.3233 165.895 32.5061 165.655 32.7458C165.415 32.9795 165.227 33.2552 165.089 33.5728C164.957 33.8844 164.891 34.229 164.891 34.6065C164.891 34.984 164.957 35.3316 165.089 35.6492C165.227 35.9608 165.415 36.2365 165.655 36.4762C165.895 36.7099 166.176 36.8926 166.5 37.0245C166.824 37.1503 167.174 37.2132 167.552 37.2132C167.911 37.2132 168.247 37.1533 168.558 37.0335C168.87 36.9136 169.155 36.7219 169.412 36.4582L169.835 36.8807C169.559 37.1863 169.221 37.417 168.819 37.5728C168.418 37.7286 167.986 37.8065 167.525 37.8065Z" fill="#0E1926"/>
<path d="M173.026 37.7526V32.0357H170.814V31.4604H175.902V32.0357H173.691V37.7526H173.026Z" fill="#0E1926"/>
<path d="M180.576 37.7526V31.4604H181.241V37.7526H180.576Z" fill="#0E1926"/>
<path d="M183.917 37.7526V31.4604H184.465L188.807 36.9256H188.519V31.4604H189.176V37.7526H188.627L184.295 32.2874H184.582V37.7526H183.917Z" fill="#0E1926"/>
<path d="M193.593 37.8065C193.126 37.8065 192.677 37.7316 192.245 37.5818C191.82 37.426 191.49 37.2282 191.256 36.9885L191.517 36.4762C191.739 36.6919 192.035 36.8747 192.407 37.0245C192.784 37.1683 193.18 37.2402 193.593 37.2402C193.989 37.2402 194.309 37.1923 194.555 37.0964C194.807 36.9945 194.99 36.8597 195.103 36.6919C195.223 36.5241 195.283 36.3383 195.283 36.1346C195.283 35.8889 195.211 35.6911 195.068 35.5413C194.93 35.3915 194.747 35.2747 194.519 35.1908C194.292 35.1009 194.04 35.023 193.764 34.9571C193.489 34.8911 193.213 34.8222 192.937 34.7503C192.662 34.6724 192.407 34.5705 192.173 34.4447C191.945 34.3189 191.76 34.1541 191.616 33.9503C191.478 33.7406 191.409 33.4679 191.409 33.1323C191.409 32.8207 191.49 32.5361 191.652 32.2784C191.82 32.0147 192.074 31.805 192.416 31.6492C192.757 31.4874 193.195 31.4065 193.728 31.4065C194.082 31.4065 194.432 31.4574 194.78 31.5593C195.127 31.6552 195.427 31.79 195.679 31.9638L195.454 32.4941C195.184 32.3144 194.897 32.1825 194.591 32.0986C194.292 32.0147 194.001 31.9728 193.719 31.9728C193.342 31.9728 193.03 32.0237 192.784 32.1256C192.539 32.2275 192.356 32.3653 192.236 32.5391C192.122 32.7069 192.065 32.8986 192.065 33.1144C192.065 33.3601 192.134 33.5578 192.272 33.7076C192.416 33.8574 192.602 33.9743 192.829 34.0582C193.063 34.1421 193.318 34.217 193.593 34.2829C193.869 34.3488 194.142 34.4207 194.411 34.4986C194.687 34.5765 194.939 34.6784 195.166 34.8042C195.4 34.9241 195.586 35.0859 195.724 35.2896C195.868 35.4934 195.939 35.7601 195.939 36.0896C195.939 36.3953 195.856 36.6799 195.688 36.9436C195.52 37.2013 195.262 37.411 194.915 37.5728C194.573 37.7286 194.133 37.8065 193.593 37.8065Z" fill="#0E1926"/>
<path d="M199.153 37.7526V32.0357H196.941V31.4604H202.029V32.0357H199.818V37.7526H199.153Z" fill="#0E1926"/>
<path d="M202.398 37.7526L205.275 31.4604H205.931L208.807 37.7526H208.106L205.463 31.8469H205.733L203.09 37.7526H202.398ZM203.531 36.0717L203.728 35.5323H207.387L207.585 36.0717H203.531Z" fill="#0E1926"/>
<path d="M213.149 37.8065C212.67 37.8065 212.226 37.7286 211.819 37.5728C211.417 37.411 211.067 37.1863 210.767 36.8986C210.473 36.611 210.243 36.2724 210.075 35.8829C209.913 35.4934 209.832 35.0679 209.832 34.6065C209.832 34.1451 209.913 33.7196 210.075 33.3301C210.243 32.9406 210.476 32.602 210.776 32.3144C211.076 32.0267 211.426 31.805 211.828 31.6492C212.235 31.4874 212.679 31.4065 213.158 31.4065C213.637 31.4065 214.075 31.4814 214.47 31.6312C214.872 31.781 215.213 32.0087 215.495 32.3144L215.082 32.7368C214.818 32.4732 214.527 32.2844 214.21 32.1705C213.892 32.0567 213.55 31.9998 213.185 31.9998C212.795 31.9998 212.436 32.0657 212.106 32.1975C211.783 32.3233 211.498 32.5061 211.252 32.7458C211.013 32.9795 210.824 33.2552 210.686 33.5728C210.554 33.8844 210.488 34.229 210.488 34.6065C210.488 34.978 210.554 35.3226 210.686 35.6402C210.824 35.9578 211.013 36.2365 211.252 36.4762C211.498 36.7099 211.783 36.8926 212.106 37.0245C212.436 37.1503 212.792 37.2132 213.176 37.2132C213.536 37.2132 213.874 37.1593 214.192 37.0514C214.515 36.9436 214.812 36.7608 215.082 36.5031L215.459 37.0065C215.159 37.2702 214.809 37.4709 214.407 37.6087C214.006 37.7406 213.586 37.8065 213.149 37.8065ZM214.821 36.9256V34.6065H215.459V37.0065L214.821 36.9256Z" fill="#0E1926"/>
<path d="M217.971 37.7526V31.4604H220.326C220.859 31.4604 221.318 31.5473 221.701 31.7211C222.085 31.8889 222.378 32.1346 222.582 32.4582C222.792 32.7758 222.897 33.1623 222.897 33.6177C222.897 34.0612 222.792 34.4447 222.582 34.7683C222.378 35.0859 222.085 35.3316 221.701 35.5054C221.318 35.6732 220.859 35.7571 220.326 35.7571H218.339L218.636 35.4514V37.7526H217.971ZM222.268 37.7526L220.65 35.4694H221.369L222.996 37.7526H222.268ZM218.636 35.5054L218.339 35.1908H220.308C220.937 35.1908 221.414 35.0529 221.737 34.7773C222.067 34.5016 222.232 34.1151 222.232 33.6177C222.232 33.1144 222.067 32.7248 221.737 32.4492C221.414 32.1735 220.937 32.0357 220.308 32.0357H218.339L218.636 31.7211V35.5054Z" fill="#0E1926"/>
<path d="M224.089 37.7526L226.966 31.4604H227.622L230.498 37.7526H229.797L227.154 31.8469H227.424L224.781 37.7526H224.089ZM225.222 36.0717L225.419 35.5323H229.078L229.276 36.0717H225.222Z" fill="#0E1926"/>
<path d="M232.168 37.7526V31.4604H232.717L235.593 36.3683H235.305L238.155 31.4604H238.703V37.7526H238.065V32.4582H238.218L235.593 36.9526H235.278L232.636 32.4582H232.806V37.7526H232.168Z" fill="#0E1926"/>
</svg>
