<?xml version="1.0" standalone="no"?>
<!DOCTYPE svg PUBLIC "-//W3C//DTD SVG 20010904//EN"
 "http://www.w3.org/TR/2001/REC-SVG-20010904/DTD/svg10.dtd">
<svg version="1.0" xmlns="http://www.w3.org/2000/svg"
 width="640.000000pt" height="640.000000pt" viewBox="0 0 640.000000 640.000000"
 preserveAspectRatio="xMidYMid meet">
<metadata>
Created by potrace 1.14, written by Peter Selinger 2001-2017
</metadata>
<g transform="translate(0.000000,640.000000) scale(0.100000,-0.100000)"
fill="#000000" stroke="none">
<path d="M2757 6394 c-1 -1 -38 -5 -82 -8 -97 -7 -217 -19 -300 -31 -16 -3
-46 -7 -65 -9 -19 -3 -60 -9 -90 -15 -30 -6 -71 -13 -90 -16 -108 -17 -358
-77 -510 -122 -47 -13 -89 -26 -95 -27 -45 -10 -161 -53 -167 -61 -4 -5 -8 -7
-8 -3 0 7 -38 -5 -105 -32 -11 -4 -74 -29 -140 -55 -165 -65 -537 -250 -670
-334 l-110 -69 0 -548 0 -549 225 -142 c124 -78 230 -145 236 -150 11 -9 16
-12 119 -75 39 -23 72 -45 75 -48 3 -3 50 -33 105 -67 55 -34 105 -67 112 -73
7 -5 14 -10 17 -10 2 0 60 -36 128 -80 67 -44 158 -101 200 -126 43 -26 83
-53 89 -60 6 -8 15 -14 20 -14 5 0 46 -24 91 -53 46 -30 220 -141 388 -247
347 -219 410 -260 411 -269 0 -3 1 -503 1 -1111 1 -1081 1 -1105 -18 -1102
-10 2 -20 8 -22 13 -2 5 -7 9 -12 9 -10 0 -225 123 -400 228 -136 81 -373 240
-408 272 -12 11 -25 20 -29 20 -4 0 -21 12 -38 28 -16 15 -66 57 -110 94 -126
104 -242 228 -364 388 -60 77 -146 235 -201 365 -10 24 -49 154 -56 186 -29
135 -36 206 -39 372 -2 104 -5 191 -8 194 -3 2 -2 17 2 31 5 15 7 36 5 47 -3
18 -5 71 -3 115 0 8 -1 77 -2 152 l-2 138 -131 87 c-72 48 -135 91 -141 96 -5
4 -32 22 -60 39 -27 18 -52 35 -55 38 -7 7 -41 28 -60 37 -8 4 -24 15 -34 25
-11 10 -24 18 -29 18 -9 0 -4 -1271 6 -1307 3 -11 9 -43 13 -70 29 -201 119
-453 236 -657 62 -108 177 -276 189 -276 5 0 9 -5 9 -11 0 -7 26 -42 57 -78
60 -70 323 -337 323 -328 0 3 15 -9 33 -26 63 -60 218 -183 309 -245 25 -17
53 -38 60 -45 7 -8 18 -16 23 -18 6 -2 62 -38 125 -80 119 -80 327 -209 335
-209 3 0 33 -18 69 -39 35 -22 108 -63 162 -92 55 -29 104 -55 109 -60 14 -10
603 -304 645 -321 l35 -15 0 1728 c0 950 -2 1729 -5 1732 -3 2 -72 47 -155 98
-82 52 -152 96 -155 100 -3 3 -21 14 -40 25 -19 10 -39 23 -45 27 -12 10 -392
252 -560 357 -13 8 -61 39 -107 68 -46 29 -92 59 -103 65 -10 7 -58 37 -105
68 -47 30 -92 58 -100 62 -13 6 -104 64 -377 239 -32 21 -67 44 -78 50 -10 7
-52 34 -93 61 -40 26 -76 47 -79 47 -2 0 -30 17 -61 39 -32 21 -80 53 -108 70
l-51 32 0 171 0 170 41 26 c23 15 42 30 44 35 2 4 7 7 12 7 4 0 38 18 74 40
76 46 269 144 371 188 129 55 394 144 472 158 15 3 65 14 112 25 46 11 107 22
135 25 28 3 57 7 63 9 7 2 45 7 85 10 40 4 83 8 96 10 41 7 182 8 188 2 4 -3
7 -243 7 -532 l-1 -527 252 -167 c138 -92 256 -170 261 -173 7 -4 10 338 10
1020 l0 1027 -153 0 c-85 0 -154 -1 -155 -1z"/>
<path d="M3327 3205 c1 -1759 4 -3199 6 -3201 2 -2 32 11 68 30 35 18 67 34
71 35 18 4 243 117 246 124 2 4 11 7 21 7 9 0 21 4 27 9 5 4 61 35 124 69 63
33 169 90 235 128 66 37 140 79 165 93 25 14 47 29 48 33 2 4 8 8 13 8 5 0 66
37 136 81 220 140 414 278 553 392 89 74 141 117 170 142 61 52 304 298 350
354 25 29 50 58 55 65 9 10 58 76 117 156 93 128 245 430 264 524 2 11 10 40
18 65 15 46 36 144 42 191 2 14 6 54 10 90 12 107 11 1549 -1 1542 -5 -3 -63
-41 -129 -84 -65 -43 -122 -78 -126 -78 -5 0 -10 -4 -12 -8 -4 -10 -87 -65
-110 -75 -10 -3 -18 -11 -18 -17 0 -5 -4 -10 -9 -10 -8 0 -1142 -750 -1164
-770 -4 -3 36 -74 89 -156 53 -82 102 -158 108 -169 6 -11 13 -22 16 -25 3 -3
19 -27 36 -53 27 -42 33 -46 45 -34 8 7 19 16 24 18 13 5 308 202 315 209 3 3
43 30 90 60 47 29 87 56 90 60 3 3 23 17 45 30 22 13 45 28 50 33 6 4 41 28
78 53 l69 44 -4 -282 c-4 -224 -8 -298 -22 -353 -21 -86 -63 -204 -79 -224 -7
-8 -11 -17 -10 -20 2 -11 -39 -96 -51 -103 -6 -4 -8 -8 -4 -8 16 0 -125 -202
-217 -310 -75 -89 -303 -305 -420 -398 -72 -57 -138 -110 -148 -118 -9 -8 -20
-14 -24 -14 -4 0 -16 -8 -27 -18 -46 -41 -186 -132 -466 -302 -57 -34 -142
-80 -150 -80 -6 0 -10 -4 -10 -9 0 -5 -8 -11 -17 -14 -10 -2 -26 -8 -36 -12
-17 -7 -17 101 -16 2420 l1 2428 131 -7 c151 -7 202 -13 307 -32 41 -8 91 -16
110 -19 37 -6 175 -40 225 -55 90 -28 223 -72 240 -80 22 -9 46 -17 58 -19 4
0 22 -8 40 -18 17 -9 38 -18 44 -19 30 -5 346 -169 438 -226 l100 -63 3 -383
c1 -243 6 -382 12 -382 6 0 10 3 10 8 0 4 17 16 37 27 20 11 41 25 47 30 6 6
43 30 81 55 39 25 79 53 89 62 11 10 24 18 28 18 5 0 33 18 63 40 30 22 57 40
60 40 3 0 26 15 53 34 l47 35 0 403 -1 403 -59 42 c-33 23 -63 42 -67 43 -4 0
-33 16 -64 36 -48 31 -389 209 -404 211 -3 0 -27 10 -55 23 -250 114 -645 244
-944 311 -169 38 -147 34 -266 53 -146 25 -226 36 -365 51 -111 12 -139 14
-330 21 l-195 6 2 -3197z"/>
</g>
</svg>
